<?xml version="1.0" standalone="no"?>
<!DOCTYPE svg PUBLIC "-//W3C//DTD SVG 20010904//EN"
 "http://www.w3.org/TR/2001/REC-SVG-20010904/DTD/svg10.dtd">
<svg version="1.0" xmlns="http://www.w3.org/2000/svg"
 width="894.000000pt" height="279.000000pt" viewBox="0 0 894.000000 279.000000"
 preserveAspectRatio="xMidYMid meet">

<g transform="translate(0.000000,279.000000) scale(0.100000,-0.100000)"
fill="#000000" stroke="none">
<path d="M1268 2780 c-15 -4 -29 -6 -32 -3 -9 10 -46 -9 -40 -20 5 -9 4 -9 -6
0 -9 8 -16 7 -30 -4 -9 -8 -40 -23 -69 -33 -59 -20 -94 -47 -86 -68 5 -12 3
-13 -10 -2 -13 11 -16 11 -13 0 2 -8 -4 -14 -12 -15 -8 0 -14 -8 -12 -16 1 -9
-6 -23 -15 -30 -17 -13 -17 -13 -3 6 14 19 14 19 -3 6 -10 -8 -15 -21 -12 -30
3 -8 3 -12 -1 -8 -12 11 -53 -43 -41 -56 1 -1 -8 -13 -20 -26 -12 -13 -20 -28
-17 -33 3 -4 0 -8 -6 -8 -6 0 -8 -4 -5 -10 3 -5 1 -10 -6 -10 -7 0 -10 -3 -7
-6 4 -3 -5 -22 -18 -41 -13 -20 -24 -40 -24 -45 0 -5 -7 -16 -15 -25 -19 -18
-14 -39 8 -37 9 1 14 -2 11 -8 -3 -5 -15 -6 -27 -2 -12 3 -19 3 -14 -2 4 -4
-1 -17 -11 -28 -10 -12 -25 -37 -32 -56 -7 -19 -20 -43 -28 -52 -19 -22 -5
-24 19 -2 10 9 15 22 13 29 -3 7 -2 15 3 18 4 3 8 -8 8 -24 1 -15 -1 -26 -4
-24 -2 3 -10 0 -18 -6 -11 -10 -11 -15 -1 -28 12 -14 11 -14 -4 -2 -14 10 -21
11 -32 2 -17 -14 -37 -67 -28 -75 9 -10 9 -46 0 -40 -5 4 -7 13 -4 23 4 9 -2
5 -13 -8 -17 -23 -19 -57 -2 -46 4 2 8 -2 8 -9 0 -9 -9 -13 -23 -10 -18 3 -27
-3 -39 -26 -12 -22 -12 -30 -3 -30 7 0 2 -7 -10 -16 -22 -15 -22 -41 0 -28 7
5 8 2 3 -6 -4 -7 -3 -15 2 -19 6 -3 2 -14 -10 -26 -11 -11 -17 -14 -13 -7 4 6
2 12 -3 12 -6 0 -11 4 -11 10 0 5 7 7 15 4 11 -5 13 -2 9 10 -3 9 -10 13 -15
10 -14 -8 -59 -108 -51 -114 4 -3 7 -15 8 -28 1 -20 -1 -21 -16 -7 -16 14 -18
14 -24 0 -8 -23 3 -38 22 -30 9 3 13 2 8 -2 -4 -4 -18 -8 -29 -8 -12 0 -22 -4
-23 -10 -1 -15 -38 -89 -48 -96 -5 -4 -5 -12 -2 -18 4 -6 2 -11 -4 -11 -6 0
-8 -4 -5 -10 3 -5 1 -10 -6 -10 -7 0 -9 -3 -6 -6 3 -4 -3 -18 -13 -32 -11 -13
-20 -36 -20 -49 0 -17 -4 -22 -13 -17 -7 5 -6 1 3 -10 18 -22 24 -54 7 -37 -6
6 -18 11 -26 11 -12 0 -13 -2 -4 -8 9 -6 6 -16 -12 -36 -23 -27 -29 -40 -26
-58 0 -5 -3 -8 -9 -8 -5 0 -7 -7 -4 -15 4 -8 1 -15 -5 -15 -6 0 -8 -7 -5 -15
4 -8 1 -15 -5 -15 -12 0 -71 -115 -71 -138 0 -8 -9 -27 -21 -43 -11 -16 -17
-29 -13 -29 4 0 0 -8 -9 -18 -10 -10 -14 -22 -10 -25 3 -4 0 -7 -8 -7 -11 0
-11 -2 1 -10 8 -5 10 -10 4 -10 -7 0 -15 -7 -18 -16 -4 -10 -2 -13 7 -8 6 4 1
-5 -13 -20 -26 -29 -26 -31 -7 -55 9 -12 9 -13 -1 -7 -12 7 -21 -6 -26 -36 -1
-7 -5 -19 -10 -26 -12 -19 -10 -197 3 -220 6 -10 7 -22 4 -26 -6 -6 12 -10 30
-7 5 1 5 -4 1 -10 -5 -9 -2 -10 12 -5 15 6 14 3 -5 -15 -15 -14 -20 -24 -13
-27 7 -2 9 -9 5 -15 -4 -6 0 -8 10 -4 12 4 14 0 11 -19 -5 -29 24 -84 44 -84
12 0 12 3 2 15 -18 21 -7 19 20 -5 13 -11 18 -20 13 -20 -6 0 -14 -7 -17 -15
-4 -11 3 -19 19 -25 14 -5 25 -16 25 -23 0 -15 57 -60 75 -60 7 0 12 -7 11
-16 -1 -9 8 -17 22 -19 12 -2 22 -7 22 -11 0 -11 59 -35 67 -28 3 3 12 -1 20
-9 8 -8 20 -11 26 -7 16 10 47 11 52 2 3 -4 -6 -6 -20 -4 -14 1 -23 0 -20 -4
17 -16 89 -26 165 -24 103 4 110 5 110 13 0 3 8 7 18 8 42 4 62 9 69 17 5 4 2
5 -6 0 -10 -6 -12 -4 -7 4 6 9 11 9 21 1 9 -8 15 -8 20 0 3 6 10 8 14 6 15
-10 50 24 44 42 -4 13 -2 13 10 -3 10 -12 16 -15 17 -7 0 7 5 10 10 7 6 -3 10
-1 10 5 0 6 5 8 10 5 14 -9 12 8 -2 25 -7 8 -3 7 8 -3 18 -15 24 -16 35 -4 8
7 22 16 32 20 9 3 17 11 17 17 0 5 6 10 14 10 7 0 19 7 26 15 15 18 0 20 -20
2 -12 -10 -12 -9 -1 6 8 10 21 15 31 12 12 -4 28 6 50 32 18 21 29 31 25 23
-5 -8 8 1 28 20 36 34 46 47 29 36 -5 -3 -9 1 -9 8 0 8 8 11 17 9 19 -5 34 22
23 40 -3 7 -3 9 2 5 4 -4 17 -3 27 3 14 8 23 8 31 0 6 -6 20 -11 32 -12 11 0
14 -3 7 -6 -8 -3 -1 -16 21 -38 26 -26 40 -33 61 -29 14 2 26 0 26 -5 0 -6 -9
-8 -20 -6 -19 4 -19 3 -4 -21 15 -22 26 -28 47 -25 4 0 7 -6 7 -14 0 -8 5 -15
11 -15 7 0 22 -10 34 -22 29 -30 65 -59 65 -53 0 3 -7 17 -16 30 -9 14 -14 25
-11 25 3 0 15 -16 27 -35 17 -28 25 -33 39 -26 18 10 51 -3 51 -20 0 -6 -7 -3
-16 5 -20 20 -40 10 -23 -11 8 -8 23 -13 36 -10 17 3 23 1 19 -9 -6 -15 57
-39 75 -28 8 4 9 3 5 -4 -4 -7 -1 -12 8 -12 8 0 23 -3 33 -6 15 -5 15 -4 3 5
-8 6 -11 11 -6 11 6 0 21 -10 34 -22 24 -22 25 -22 19 -3 -7 19 -6 19 7 1 13
-16 28 -18 123 -17 134 2 133 2 127 13 -4 5 0 9 7 7 31 -4 59 2 59 12 0 5 -5
7 -12 3 -6 -4 -8 -3 -5 3 3 5 16 9 29 8 13 -1 32 5 42 14 12 10 16 11 12 3 -5
-8 10 -3 33 10 24 13 39 28 36 36 -3 7 0 10 5 7 14 -9 82 46 76 61 -3 8 0 11
11 7 12 -5 14 -1 9 18 -3 13 -3 18 0 12 7 -16 24 -17 24 -1 0 6 10 23 23 36
12 14 15 21 7 17 -12 -7 -13 -6 -3 7 7 8 9 18 5 22 -4 4 -1 6 7 4 22 -5 43 42
28 62 -6 8 -7 12 -3 8 15 -13 36 13 36 43 0 15 5 31 10 34 6 3 8 17 6 31 -3
14 0 24 7 24 8 0 8 3 0 11 -7 7 -7 23 -1 50 8 28 7 43 -1 53 -9 10 -9 16 -1
21 8 5 8 11 -1 21 -8 10 -8 14 0 14 6 0 11 5 11 11 0 5 -5 7 -11 3 -7 -4 -10
2 -8 17 6 50 -38 172 -66 183 -8 3 -15 11 -15 18 0 9 3 9 11 -2 9 -13 10 -13
5 0 -3 8 -9 23 -12 32 -4 10 -11 18 -16 18 -5 0 -6 4 -3 10 3 6 1 10 -4 10 -6
0 -11 5 -11 11 0 5 6 7 13 3 9 -5 9 -4 0 6 -10 11 -15 11 -30 -1 -16 -12 -17
-12 -6 2 7 9 9 20 5 24 -4 5 -1 5 6 1 11 -7 11 -4 1 12 -9 14 -17 18 -25 11
-8 -7 -10 -1 -7 23 4 33 -23 108 -39 108 -4 0 -7 3 -6 8 4 14 -13 52 -23 52
-6 0 -7 -6 -3 -13 4 -6 3 -8 -1 -4 -12 10 -15 38 -4 32 12 -8 -27 81 -51 115
-11 15 -17 30 -13 34 3 3 1 6 -6 6 -7 0 -9 5 -6 10 10 17 -46 99 -64 93 -11
-3 -12 -2 -4 4 7 5 11 15 10 23 -4 23 -50 120 -57 120 -3 0 -6 10 -7 21 -3 30
-11 35 -33 22 -17 -11 -18 -11 -4 15 8 16 10 28 4 30 -6 2 -10 9 -10 16 0 7
-11 30 -25 50 -14 21 -21 35 -15 31 6 -3 7 0 4 9 -7 19 -30 21 -37 4 -4 -10
-6 -10 -6 -1 -1 6 3 14 9 18 5 3 7 12 4 20 -4 8 -10 13 -14 10 -5 -3 -7 3 -5
12 1 10 -5 32 -13 48 -16 30 -18 36 -21 55 -2 14 -28 12 -34 -2 -4 -10 -6 -10
-6 -1 -1 6 3 15 9 18 6 4 4 17 -5 35 -9 17 -15 33 -15 37 1 5 -11 23 -26 42
-15 19 -21 31 -13 27 8 -4 6 -1 -4 7 -10 9 -17 17 -15 19 5 6 -35 91 -49 106
-7 7 -14 18 -14 23 -1 5 -3 14 -4 19 -1 6 -3 15 -4 21 0 5 -6 7 -13 3 -7 -4
-8 -3 -4 5 5 7 -3 29 -18 51 -14 22 -26 44 -26 50 0 5 -4 10 -8 10 -5 0 -9 6
-9 14 0 31 -147 190 -168 182 -10 -3 -12 0 -8 12 3 9 2 14 -2 9 -5 -4 -16 0
-26 9 -9 8 -23 16 -31 18 -7 1 -19 5 -26 10 -7 4 -19 2 -28 -5 -12 -10 -13 -9
-8 6 5 13 4 16 -4 11 -7 -4 -18 -4 -24 1 -25 15 -48 13 -49 -5 0 -14 -3 -13
-16 6 -17 24 -16 24 -55 12z m179 -45 c0 -8 -4 -12 -9 -9 -4 3 -8 9 -8 15 0 5
4 9 8 9 5 0 9 -7 9 -15z m-282 -4 c3 -5 2 -12 -3 -15 -5 -3 -9 1 -9 9 0 17 3
19 12 6z m28 -6 c-3 -9 -8 -14 -10 -11 -3 3 -2 9 2 15 9 16 15 13 8 -4z m-158
-55 c-3 -5 -12 -10 -18 -10 -7 0 -6 4 3 10 19 12 23 12 15 0z m553 -5 c3 -3
-4 -4 -16 -2 -12 2 -24 6 -28 10 -4 3 4 4 16 2 12 -2 25 -7 28 -10z m-43 -23
c-3 -3 -11 0 -18 7 -9 10 -8 11 6 5 10 -3 15 -9 12 -12z m-263 -27 c14 -1 24
3 22 7 -7 10 -1 10 29 -1 14 -6 28 -7 31 -3 12 11 46 9 57 -5 6 -7 16 -10 23
-7 6 3 2 -2 -9 -12 -15 -12 -16 -15 -4 -11 10 3 26 -4 40 -20 26 -27 66 -53
55 -35 -3 6 -2 14 4 17 6 4 9 3 8 -2 -3 -9 5 -13 25 -13 8 0 7 4 -3 11 -12 8
-12 10 -1 7 16 -5 24 -38 10 -38 -6 0 -7 -5 -3 -12 4 -7 3 -8 -5 -4 -6 4 -9
12 -6 17 3 5 -1 6 -9 3 -14 -5 -13 -8 2 -22 9 -10 23 -24 30 -32 10 -11 12
-11 6 -1 -5 10 -3 12 5 7 9 -6 9 -11 0 -22 -9 -11 -9 -14 1 -14 8 0 10 -3 7
-6 -12 -12 14 -46 30 -40 14 6 14 4 2 -10 -12 -15 -11 -16 8 -10 16 5 25 2 32
-13 8 -14 8 -22 -1 -27 -6 -4 -8 -3 -5 2 8 14 -9 38 -22 30 -15 -10 8 -56 28
-56 14 0 14 -2 1 -10 -11 -7 -11 -10 -2 -10 7 0 11 -4 8 -9 -3 -5 3 -20 14
-33 11 -14 16 -29 12 -33 -4 -4 3 -4 15 -1 12 4 24 2 28 -3 3 -6 0 -8 -8 -5
-8 3 -18 1 -22 -5 -3 -6 -1 -11 5 -11 6 0 9 -4 5 -9 -3 -5 1 -16 9 -24 8 -8
12 -17 9 -21 -4 -3 -2 -6 4 -6 5 0 10 -6 10 -13 0 -7 8 -25 18 -40 17 -27 18
-27 39 -10 l21 18 -21 -25 c-17 -21 -19 -29 -9 -47 9 -18 14 -20 25 -10 10 10
10 8 1 -10 -9 -18 -9 -23 0 -23 7 0 9 -3 6 -6 -4 -4 4 -21 16 -38 12 -17 21
-33 20 -36 0 -3 3 -4 8 -3 4 2 6 -3 3 -11 -3 -8 -1 -17 5 -21 6 -3 11 -14 11
-24 0 -10 11 -34 24 -54 13 -19 22 -38 18 -41 -3 -3 0 -6 7 -6 7 0 9 -4 6 -10
-3 -5 -1 -10 4 -10 6 0 10 -6 8 -12 -1 -7 4 -12 11 -10 8 1 11 -2 7 -9 -12
-18 26 -91 43 -84 13 5 13 3 1 -11 -12 -15 -11 -16 11 -9 24 7 24 7 5 -9 -11
-8 -14 -16 -7 -16 6 0 12 -7 12 -16 0 -9 6 -14 13 -11 8 3 14 -1 14 -9 0 -7
-5 -11 -10 -7 -18 11 17 -69 61 -142 4 -5 8 -18 9 -28 5 -29 34 -67 47 -60 6
4 4 -2 -4 -12 -14 -17 -13 -18 2 -12 10 3 20 1 24 -5 4 -6 3 -8 -4 -4 -6 3
-13 2 -17 -4 -3 -5 -1 -10 4 -10 6 0 10 -3 10 -7 -3 -20 2 -34 11 -28 6 3 7
-1 4 -9 -6 -16 29 -81 56 -104 12 -11 13 -12 0 -6 -13 7 -13 5 -2 -9 8 -9 11
-20 8 -26 -3 -5 1 -11 9 -15 8 -3 15 -13 15 -21 0 -10 5 -13 13 -9 9 6 8 3 -1
-8 -11 -14 -10 -20 5 -36 18 -18 25 -35 26 -59 0 -6 12 -16 25 -23 18 -8 22
-14 14 -22 -11 -11 -5 -41 7 -34 4 3 7 -7 8 -22 1 -41 23 -146 33 -156 5 -5 5
-17 0 -27 -7 -12 -6 -20 1 -25 8 -5 8 -8 0 -13 -10 -6 -23 -60 -33 -135 -4
-23 -44 -72 -124 -151 -33 -33 -66 -69 -73 -80 -11 -19 -12 -19 -5 4 5 18 3
22 -7 15 -8 -5 -20 -9 -27 -10 -7 -1 -20 -8 -29 -16 -9 -7 -24 -12 -35 -10
-10 2 -18 -1 -18 -7 0 -5 -37 -11 -84 -13 -46 -2 -82 0 -80 4 2 4 0 9 -6 13
-5 3 -11 -2 -11 -12 -1 -17 -2 -17 -6 0 -2 9 -8 17 -11 18 -24 2 -45 9 -72 22
-17 9 -27 11 -24 5 4 -6 -8 0 -27 13 -19 13 -36 28 -37 32 -2 4 -10 2 -18 -4
-12 -10 -16 -8 -21 9 -3 13 -13 22 -25 22 -10 0 -17 4 -13 9 7 12 -35 42 -48
34 -6 -3 -7 -1 -3 5 12 20 -12 22 -37 2 -18 -15 -28 -17 -33 -9 -4 7 -3 10 2
7 5 -3 18 4 29 15 l20 20 -21 -5 c-13 -3 -21 0 -21 8 0 7 5 10 11 7 6 -4 5 1
-3 11 -9 10 -23 15 -35 12 -12 -3 -32 2 -46 9 -28 16 -19 20 10 5 13 -7 21 -7
26 2 4 6 3 8 -4 4 -6 -3 -13 -2 -17 4 -3 5 -1 10 5 10 6 0 -4 16 -22 35 -20
23 -37 33 -47 30 -9 -3 -12 -3 -9 0 4 4 3 18 -3 32 -5 13 -5 22 -1 19 12 -7
52 22 52 38 0 8 7 16 15 20 8 3 15 11 15 19 0 7 11 24 25 37 20 19 23 26 12
38 -10 13 -9 15 4 10 9 -4 20 2 27 13 13 20 3 26 -13 10 -6 -6 -10 -2 -10 13
0 12 5 23 12 23 7 0 10 -4 7 -9 -3 -4 5 -8 16 -8 15 0 20 5 17 14 -3 8 4 22
15 33 22 20 63 93 52 93 -4 0 1 9 11 20 10 11 14 20 10 20 -4 0 0 9 10 20 10
11 15 20 10 20 -4 0 -2 6 4 14 9 11 9 15 -1 19 -8 3 -6 6 6 6 12 1 16 6 12 16
-3 8 -1 15 5 15 6 0 9 6 6 14 -3 7 -2 17 3 22 39 40 49 364 11 356 -7 -1 -9 2
-6 9 14 22 -46 128 -101 181 -74 70 -77 73 -83 72 -3 -1 -12 1 -18 3 -20 8
-45 -5 -37 -18 4 -8 3 -9 -5 -5 -9 6 -9 11 0 23 17 19 -9 37 -29 21 -10 -9
-12 -8 -10 2 4 18 -93 39 -162 35 -67 -4 -110 -14 -110 -26 0 -5 -7 -6 -15 -3
-8 4 -15 1 -15 -6 0 -6 -8 -10 -17 -9 -32 4 -72 -13 -78 -32 -4 -10 -11 -19
-16 -19 -6 0 -7 6 -3 13 5 8 3 8 -9 -2 -9 -7 -14 -18 -10 -24 3 -5 1 -7 -5 -3
-15 9 -72 -42 -72 -65 0 -10 -6 -19 -12 -19 -9 0 -8 -4 2 -10 12 -8 10 -10
-10 -10 -20 0 -22 -2 -10 -10 11 -7 11 -10 2 -10 -21 0 -63 -100 -51 -122 7
-14 6 -20 -6 -24 -20 -8 -23 -184 -2 -184 8 0 13 -18 14 -52 1 -29 7 -54 13
-56 5 -2 8 -7 5 -12 -3 -5 0 -21 7 -37 6 -15 10 -32 9 -36 -1 -5 9 -5 21 -1
21 6 21 6 5 -10 -20 -20 -12 -47 11 -38 15 5 16 4 2 -13 -8 -10 -10 -16 -5
-13 13 8 30 -12 31 -37 0 -12 6 -19 14 -17 10 2 11 0 2 -11 -9 -11 -5 -20 17
-41 16 -16 27 -34 25 -41 -3 -7 0 -16 6 -20 6 -4 15 -18 21 -32 5 -13 14 -21
19 -18 6 4 10 3 9 -2 -4 -21 3 -34 34 -64 17 -18 26 -29 18 -24 -10 5 -12 4
-7 -3 4 -7 13 -12 20 -12 8 0 20 -8 27 -18 13 -15 12 -16 -3 -3 -24 18 -23 9
3 -20 24 -27 19 -65 -12 -87 -10 -7 -19 -20 -19 -28 0 -8 -3 -13 -7 -11 -11 7
-33 -19 -25 -29 4 -4 2 -4 -4 -1 -15 8 -74 -48 -74 -70 0 -15 -2 -16 -10 -3
-9 13 -14 7 -11 -12 0 -4 -5 -5 -12 -2 -7 2 -22 -5 -32 -16 -16 -18 -17 -23
-5 -30 9 -6 10 -10 3 -10 -6 0 -15 4 -18 10 -6 9 -52 -14 -66 -33 -3 -5 -8 -8
-10 -7 -9 3 -45 -15 -52 -27 -5 -7 -19 -11 -33 -9 -13 3 -24 1 -24 -4 0 -5 -7
-6 -17 -3 -12 5 -14 3 -8 -7 5 -9 4 -11 -4 -6 -6 4 -22 1 -35 -8 -13 -8 -26
-12 -30 -9 -5 5 -102 7 -108 2 -11 -8 -47 -4 -45 5 1 6 -6 10 -16 8 -9 -2 -17
3 -17 10 0 7 -9 2 -19 -11 -13 -17 -18 -19 -18 -7 0 9 4 16 9 16 4 0 8 5 8 10
0 6 -3 9 -7 8 -21 -4 -140 71 -156 98 -4 7 -16 11 -26 9 -14 -3 -18 1 -14 15
3 11 -4 32 -14 47 -10 15 -27 47 -37 70 -11 23 -22 40 -27 38 -4 -3 -4 8 1 24
4 16 6 32 3 35 -9 8 -9 155 0 149 7 -4 11 12 8 31 -1 4 3 14 9 20 5 7 7 16 3
19 -3 4 -1 7 6 7 7 0 10 4 7 8 -3 5 12 43 32 84 21 41 36 80 34 86 -2 7 1 12
7 12 6 0 11 9 11 20 0 11 6 20 13 20 8 0 7 4 -3 10 -13 8 -13 10 1 10 15 0 33
32 30 53 -1 4 3 7 8 7 5 0 9 12 9 27 0 15 5 29 12 31 9 3 5 11 -11 23 -20 15
-22 20 -11 31 11 11 12 10 6 -6 -6 -16 -4 -17 17 -11 19 5 21 4 9 -5 -10 -8
-11 -10 -2 -8 8 2 13 8 13 13 0 6 8 18 16 28 9 9 13 17 8 17 -4 0 -1 8 6 17 8
9 9 14 3 10 -6 -3 -11 0 -11 7 0 9 7 12 16 8 9 -3 13 -1 8 3 -4 5 -1 18 6 29
7 12 12 31 11 43 -1 13 3 20 11 17 12 -5 25 14 31 44 1 8 10 22 19 32 9 10 14
24 10 29 -3 6 -1 11 6 11 10 0 10 3 1 12 -10 10 -15 10 -21 0 -7 -11 -9 -11
-14 1 -5 12 1 15 25 12 25 -4 28 -2 18 11 -11 12 -10 13 2 9 18 -7 44 47 32
66 -4 7 -3 10 2 6 6 -3 16 4 23 15 11 18 11 20 -2 15 -21 -8 -28 2 -16 25 7
14 16 17 32 12 12 -3 19 -3 14 1 -4 5 0 16 9 26 9 10 17 29 18 42 0 14 4 23 9
20 4 -2 10 9 13 26 4 19 11 28 18 24 6 -3 2 4 -9 18 -12 15 -14 19 -4 11 14
-11 20 -7 38 23 11 20 21 48 21 63 0 21 2 24 10 12 9 -13 10 -13 11 0 1 8 2
20 3 25 0 6 14 30 29 53 17 26 26 51 22 60 -3 9 -3 13 1 10 9 -10 36 20 29 32
-3 5 -1 10 6 10 10 0 10 3 1 12 -9 9 -15 8 -28 -8 -14 -18 -15 -18 -4 4 8 17
17 21 31 17 26 -9 24 3 -3 16 -23 9 -23 10 -1 5 27 -5 46 16 64 69 8 22 18 43
23 46 4 4 3 10 -4 14 -7 4 -17 1 -22 -6 -8 -12 -9 -11 -5 1 2 9 14 14 27 12
19 -2 21 0 10 13 -11 13 -10 15 1 10 14 -5 59 66 59 93 0 7 5 10 12 6 6 -4 8
-3 5 3 -4 6 2 18 13 28 11 10 17 21 15 26 -3 4 -1 10 5 14 6 4 8 10 5 15 -3 4
2 11 11 14 8 3 12 11 8 17 -4 7 -3 9 4 5 6 -3 14 0 19 8 8 14 12 16 33 16 6 0
10 7 10 15 0 8 10 19 21 26 15 7 19 8 15 0 -5 -7 -1 -9 8 -5 9 3 16 10 16 14
0 4 11 6 25 5 18 -2 25 2 25 13 0 10 3 13 8 7 4 -5 19 -10 34 -10z m219 -12
c13 -16 12 -17 -3 -4 -10 7 -18 15 -18 17 0 8 8 3 21 -13z m110 -6 c-10 -9
-11 -8 -5 6 3 10 9 15 12 12 3 -3 0 -11 -7 -18z m-126 -8 c11 -17 -1 -21 -15
-4 -8 9 -8 15 -2 15 6 0 14 -5 17 -11z m161 2 c-3 -5 1 -12 10 -15 8 -3 12
-11 8 -17 -5 -9 -11 -7 -20 6 -12 16 -11 35 2 35 3 0 3 -4 0 -9z m51 -70 c0
-11 -5 -18 -9 -15 -4 3 -5 11 -1 19 7 21 12 19 10 -4z m-823 -67 c-1 -15 -8
-32 -14 -38 -10 -8 -10 -6 -2 10 6 12 9 24 6 27 -6 5 3 27 10 27 2 0 2 -12 0
-26z m151 4 c2 -2 -3 -8 -9 -14 -10 -9 -15 -7 -24 7 -10 15 -8 17 10 14 11 -3
22 -6 23 -7z m-43 -35 c-6 -2 -9 -10 -6 -15 4 -7 2 -8 -5 -4 -13 9 -5 26 12
25 9 0 8 -2 -1 -6z m792 -69 c3 -8 2 -12 -4 -9 -6 3 -10 10 -10 16 0 14 7 11
14 -7z m-980 -62 c2 -4 -5 -9 -17 -9 -17 -2 -19 0 -7 7 18 12 18 12 24 2z
m1043 -257 c0 -8 -4 -12 -9 -9 -5 3 -6 10 -3 15 9 13 12 11 12 -6z m127 -30
c-7 -18 -20 -19 -30 -3 -4 6 -3 8 4 4 6 -3 13 -2 17 4 9 15 15 12 9 -5z
m-1231 -60 c-7 -21 -12 -19 -10 4 0 11 5 18 9 15 4 -3 5 -11 1 -19z m1168 -88
c-10 -9 -11 -8 -5 6 3 10 9 15 12 12 3 -3 0 -11 -7 -18z m-1248 -72 c-7 -21
-12 -19 -10 4 0 11 5 18 9 15 4 -3 5 -11 1 -19z m1337 -75 c6 -11 8 -20 6 -20
-3 0 -10 9 -16 20 -6 11 -8 20 -6 20 3 0 10 -9 16 -20z m125 -17 c-2 -10 -4
-19 -4 -21 -1 -2 -6 0 -11 3 -8 5 -7 11 1 21 15 18 18 18 14 -3z m-1001 -8
c11 -8 15 -15 9 -15 -7 0 -15 5 -18 10 -3 6 -11 10 -16 10 -6 0 -8 -4 -5 -8 2
-4 -5 -9 -16 -9 -20 -2 -20 -1 -2 12 23 18 25 18 48 0z m514 -90 c-3 -3 -9 2
-12 12 -6 14 -5 15 5 6 7 -7 10 -15 7 -18z m-1183 -3 c-3 -3 -11 0 -18 7 -9
10 -8 11 6 5 10 -3 15 -9 12 -12z m920 3 c22 -5 46 -9 53 -11 7 -1 24 -10 38
-19 13 -9 30 -13 36 -9 7 4 8 3 4 -4 -4 -7 6 -25 24 -42 16 -16 30 -34 30 -40
0 -5 5 -9 11 -7 6 1 13 -11 15 -27 1 -16 7 -32 12 -35 11 -8 9 -268 -3 -278
-4 -5 -5 -2 0 6 5 9 4 12 -3 8 -5 -4 -9 -15 -8 -24 2 -10 -6 -26 -16 -37 -10
-11 -16 -26 -13 -34 2 -7 1 -11 -4 -8 -7 5 -22 -28 -20 -42 0 -2 -7 -14 -15
-28 -9 -13 -13 -24 -9 -24 5 0 0 -5 -9 -11 -11 -6 -15 -16 -11 -26 4 -11 3
-14 -6 -9 -6 4 -10 4 -9 -1 2 -4 -12 -29 -30 -56 -18 -26 -30 -52 -27 -57 3
-6 -1 -7 -10 -4 -11 5 -14 2 -9 -10 4 -10 1 -16 -7 -16 -12 0 -12 -2 -1 -9 11
-6 8 -10 -10 -14 -20 -6 -61 -57 -62 -81 -1 -5 -12 -10 -26 -12 -14 -1 -19 0
-12 2 6 3 9 11 6 16 -4 7 -2 8 4 4 7 -4 12 -3 12 2 0 6 -7 12 -15 16 -8 3 -20
17 -25 31 -6 16 -14 23 -22 19 -8 -5 -9 -2 -5 10 5 14 3 17 -8 12 -8 -3 -14
-2 -14 2 4 22 -3 41 -21 60 -12 12 -17 22 -13 22 4 0 0 5 -10 11 -9 6 -14 15
-11 21 5 7 2 8 -5 4 -7 -5 -10 -15 -7 -23 3 -8 2 -11 -4 -8 -5 3 -7 19 -5 35
2 17 -1 30 -6 30 -5 0 -9 6 -9 13 0 19 -61 131 -76 140 -9 5 -12 17 -8 32 7
30 -5 53 -17 34 -7 -12 -9 -12 -9 0 0 11 -3 11 -17 0 -16 -12 -17 -12 -6 2 7
9 9 20 5 25 -4 4 0 3 10 -4 21 -16 33 0 19 26 -6 11 -7 22 -4 26 3 3 1 6 -5 6
-6 0 -9 7 -6 15 4 8 1 15 -6 15 -6 0 -8 5 -4 11 9 16 8 135 -2 151 -14 23 -12
34 6 34 10 0 16 -4 14 -8 -3 -4 -1 -8 3 -8 9 0 36 56 38 80 0 8 6 14 13 12 8
-1 11 7 8 24 -3 15 -2 24 1 20 3 -3 13 0 21 7 13 9 14 9 8 0 -11 -19 5 -16 44
9 19 12 42 23 50 25 105 21 108 21 175 8z m155 -22 c0 -3 -6 -3 -14 0 -7 3
-20 0 -27 -6 -11 -10 -11 -9 0 5 11 15 41 15 41 1z m-566 -49 c3 -8 2 -12 -4
-9 -6 3 -10 10 -10 16 0 14 7 11 14 -7z m636 -18 c0 -2 -8 -10 -17 -17 -16
-13 -17 -12 -4 4 13 16 21 21 21 13z m-1200 -37 c-6 -10 -13 -19 -16 -19 -2 0
0 8 5 19 6 10 7 22 3 26 -4 5 -1 5 6 1 9 -5 9 -12 2 -27z m1315 -9 c3 -6 -1
-7 -9 -4 -18 7 -21 14 -7 14 6 0 13 -4 16 -10z m-829 -55 c1 -8 -2 -15 -7 -15
-5 0 -9 10 -9 22 0 23 12 17 16 -7z m1279 -9 c-1 -17 -5 -30 -8 -28 -4 1 -7 5
-6 8 0 4 -5 10 -12 15 -22 13 -18 35 5 35 18 0 22 -5 21 -30z m105 -11 c11
-13 10 -14 -4 -9 -9 3 -16 10 -16 15 0 13 6 11 20 -6z m-1838 -82 c-6 -2 -9
-10 -6 -15 4 -7 2 -8 -5 -4 -13 9 -5 26 12 25 9 0 8 -2 -1 -6z m-102 -17 c0
-2 -7 -7 -16 -10 -8 -3 -12 -2 -9 4 6 10 25 14 25 6z m660 -26 c0 -5 -5 -10
-11 -10 -5 0 -7 5 -4 10 3 6 8 10 11 10 2 0 4 -4 4 -10z m-103 -35 c0 -8 -4
-12 -9 -9 -5 3 -6 10 -3 15 9 13 12 11 12 -6z m127 -61 c7 -19 2 -18 -19 6
-16 17 -16 20 -3 15 9 -4 19 -13 22 -21z m726 12 c0 -2 -7 -7 -16 -10 -8 -3
-12 -2 -9 4 6 10 25 14 25 6z m-1392 -51 c-3 -3 -9 2 -12 12 -6 14 -5 15 5 6
7 -7 10 -15 7 -18z m1359 -35 c1 -11 -2 -20 -7 -20 -6 0 -7 17 -1 38 3 8 7 -1
8 -18z m620 6 c4 -4 1 -6 -7 -4 -9 2 -14 -3 -12 -12 2 -8 0 -11 -4 -7 -4 4 -9
14 -10 21 -2 14 20 16 33 2z m-732 -36 c-3 -5 -12 -10 -18 -10 -7 0 -6 4 3 10
19 12 23 12 15 0z m-524 -71 c8 -17 8 -20 -2 -17 -7 2 -13 12 -15 21 -3 23 3
21 17 -4z m-916 -18 c3 -5 2 -12 -3 -15 -5 -3 -9 1 -9 9 0 17 3 19 12 6z m110
-10 c3 -5 2 -12 -3 -15 -5 -3 -9 1 -9 9 0 17 3 19 12 6z m1392 -31 c1 -11 -3
-22 -8 -25 -5 -4 -6 -11 -3 -17 5 -7 2 -8 -6 -3 -10 6 -12 4 -7 -8 9 -25 0
-21 -14 6 -6 12 -8 19 -4 15 8 -8 36 16 34 29 -2 11 0 23 4 23 1 0 3 -9 4 -20z
m734 -7 c13 -16 12 -17 -3 -4 -17 13 -22 21 -14 21 2 0 10 -8 17 -17z m-2246
-33 c-3 -6 -12 -10 -18 -9 -9 0 -9 2 1 6 6 2 12 9 12 14 0 6 -4 7 -10 4 -11
-7 -14 8 -3 19 9 9 26 -22 18 -34z m1380 30 c-3 -5 -14 -10 -23 -10 -15 0 -15
2 -2 10 20 13 33 13 25 0z m849 -16 c3 -8 2 -12 -4 -9 -6 3 -10 10 -10 16 0
14 7 11 14 -7z m135 -36 c-5 -10 -11 -18 -12 -18 -2 0 -3 8 -3 18 0 10 6 19
13 19 8 0 9 -6 2 -19z m-2309 -2 c0 -2 -7 -7 -16 -10 -8 -3 -12 -2 -9 4 6 10
25 14 25 6z m845 -6 c4 -6 1 -9 -7 -8 -7 2 -12 -3 -10 -9 1 -7 -3 -13 -9 -13
-5 0 -7 -6 -3 -12 5 -9 2 -9 -9 1 -22 18 -21 24 6 37 12 7 23 12 24 13 1 0 5
-4 8 -9z m-861 -55 c3 -8 1 -15 -4 -15 -6 0 -10 7 -10 15 0 8 2 15 4 15 2 0 6
-7 10 -15z m-103 -12 c13 -16 12 -17 -3 -4 -10 7 -18 15 -18 17 0 8 8 3 21
-13z m104 -22 c3 -5 2 -12 -3 -15 -5 -3 -9 1 -9 9 0 17 3 19 12 6z m919 -76
c-4 -8 -2 -15 4 -15 6 0 13 6 15 13 4 9 6 9 6 0 1 -17 -19 -27 -31 -15 -6 6
-7 15 -4 21 10 16 16 13 10 -4z m150 -47 c8 -5 8 -8 1 -8 -6 0 -17 6 -24 13
-12 10 -13 8 -7 -8 4 -11 4 -16 -1 -12 -4 5 -8 22 -9 38 l-2 30 16 -23 c9 -13
21 -26 26 -30z m238 28 c6 4 9 1 6 -6 -7 -23 -24 -21 -25 2 0 13 1 17 4 10 3
-6 9 -9 15 -6z m-127 -28 c2 -20 1 -20 -11 -3 -7 10 -11 22 -8 27 8 13 17 2
19 -24z m-235 8 c0 -3 -4 -8 -10 -11 -5 -3 -10 -1 -10 4 0 6 5 11 10 11 6 0
10 -2 10 -4z m57 -51 c0 -8 -4 -12 -9 -9 -5 3 -6 10 -3 15 9 13 12 11 12 -6z
m21 -14 c-1 -16 -5 -28 -9 -26 -6 5 0 55 7 55 3 0 3 -13 2 -29z m-1008 -157
c0 -8 -19 -13 -24 -6 -3 5 1 9 9 9 8 0 15 -2 15 -3z m2205 -53 c3 -5 2 -12 -3
-15 -5 -3 -9 1 -9 9 0 17 3 19 12 6z m-2 -55 c6 -15 -17 -16 -30 -1 -4 4 -2 5
5 1 6 -4 12 -2 12 3 0 15 7 14 13 -3z m-2117 -35 c-4 -5 -1 -11 6 -13 6 -2 12
-12 14 -21 1 -9 -2 -15 -7 -11 -5 3 -7 9 -4 14 3 4 -2 11 -11 14 -13 5 -12 26
2 26 3 0 3 -4 0 -9z m874 5 c0 -2 -8 -10 -17 -17 -16 -13 -17 -12 -4 4 13 16
21 21 21 13z m1154 -21 c-9 -14 -12 -30 -8 -37 6 -10 4 -10 -8 0 -15 12 -15
15 4 38 28 31 33 31 12 -1z m126 5 c0 -5 -5 -10 -11 -10 -5 0 -7 5 -4 10 3 6
8 10 11 10 2 0 4 -4 4 -10z m11 -23 c-10 -9 -11 -8 -5 6 3 10 9 15 12 12 3 -3
0 -11 -7 -18z m-1515 -9 c4 -7 3 -8 -4 -4 -7 4 -12 2 -12 -5 0 -7 -3 -10 -6
-6 -6 5 3 27 11 27 2 0 7 -5 11 -12z m-689 -31 c0 -7 -9 -13 -19 -13 -18 0
-18 1 -2 13 10 7 18 13 19 13 1 0 2 -6 2 -13z m1318 3 c-3 -5 -12 -10 -18 -10
-7 0 -6 4 3 10 19 12 23 12 15 0z m-784 -43 c-6 -8 -9 -16 -6 -19 3 -2 -2 -5
-10 -5 -13 0 -13 3 2 19 19 21 31 25 14 5z m1459 9 c0 -3 -4 -8 -10 -11 -5 -3
-10 -1 -10 4 0 6 5 11 10 11 6 0 10 -2 10 -4z m-63 -20 c0 -15 -21 -16 -34 -1
-4 4 -3 5 4 1 6 -3 14 -2 18 4 8 14 12 13 12 -4z m-297 -2 c0 -8 -19 -13 -24
-6 -3 5 1 9 9 9 8 0 15 -2 15 -3z m-1203 -118 c-8 -8 -17 -12 -21 -9 -3 3 2
12 12 19 22 16 29 9 9 -10z m103 18 c0 -8 -19 -13 -24 -6 -3 5 1 9 9 9 8 0 15
-2 15 -3z m1385 -3 c3 -5 1 -12 -5 -16 -5 -3 -10 -1 -10 5 0 6 -5 8 -12 4 -7
-4 -8 -3 -4 4 9 14 23 15 31 3z m-45 -16 c0 -2 -6 -5 -13 -8 -8 -3 -14 1 -14
8 0 7 6 11 14 8 7 -3 13 -6 13 -8z"/>
<path d="M1403 2605 c0 -8 4 -12 9 -9 5 3 6 10 3 15 -9 13 -12 11 -12 -6z"/>
<path d="M577 1626 c-4 -10 0 -12 14 -9 10 3 16 9 13 14 -8 13 -21 11 -27 -5z"/>
<path d="M1075 1530 c-3 -5 -1 -10 4 -10 6 0 11 5 11 10 0 6 -2 10 -4 10 -3 0
-8 -4 -11 -10z"/>
<path d="M985 1400 c3 -5 11 -10 16 -10 6 0 7 5 4 10 -3 6 -11 10 -16 10 -6 0
-7 -4 -4 -10z"/>
<path d="M2125 1410 c-3 -5 1 -10 10 -10 9 0 13 5 10 10 -3 6 -8 10 -10 10 -2
0 -7 -4 -10 -10z"/>
<path d="M4518 2253 c-20 -2 -42 -11 -48 -19 -7 -8 -17 -14 -23 -14 -6 0 -2 7
9 15 19 15 19 15 -1 9 -30 -10 -76 -56 -71 -71 3 -7 1 -13 -3 -13 -5 0 -12 -7
-15 -16 -3 -8 -2 -13 2 -10 5 3 9 -1 9 -9 0 -8 -5 -11 -10 -8 -5 3 -7 0 -5 -8
3 -8 11 -13 17 -11 7 1 10 -2 6 -7 -3 -6 -12 -8 -20 -4 -12 4 -13 0 -7 -18 5
-13 15 -25 23 -27 11 -3 12 -2 1 6 -11 8 -11 10 0 15 9 3 14 -3 14 -18 0 -16
-4 -21 -15 -17 -13 5 -14 3 -4 -10 7 -8 9 -19 5 -23 -4 -5 -1 -5 6 -1 7 4 12
1 12 -7 0 -8 7 -18 16 -21 10 -4 13 -2 8 7 -4 6 -4 9 1 5 4 -4 14 -3 21 3 8 7
14 6 20 -2 4 -7 3 -9 -4 -5 -6 4 -16 -4 -23 -16 -11 -21 -11 -22 5 -9 14 12
16 12 9 -4 -5 -14 -3 -17 10 -12 9 3 17 2 17 -3 0 -16 93 -12 116 5 12 8 25
11 29 7 5 -4 5 -1 1 6 -4 7 -2 12 7 12 22 0 47 35 50 69 1 17 5 31 10 31 13 0
7 38 -7 43 -9 4 -12 19 -10 45 2 34 -2 44 -27 66 -16 14 -35 26 -43 26 -8 0
-18 5 -21 10 -3 6 -12 9 -18 8 -7 -1 -29 -3 -49 -5z m142 -98 c0 -8 -2 -15 -4
-15 -2 0 -6 7 -10 15 -3 8 -1 15 4 15 6 0 10 -7 10 -15z m24 -74 c-2 -3 -12 3
-22 13 -16 17 -16 18 5 5 12 -7 20 -15 17 -18z m-28 -77 c2 -14 0 -24 -3 -20
-3 3 -7 17 -9 32 -1 14 0 23 3 20 4 -3 8 -18 9 -32z m-51 -32 c-3 -3 -11 0
-18 7 -9 10 -8 11 6 5 10 -3 15 -9 12 -12z"/>
<path d="M5593 2254 c-10 -5 -13 -165 -13 -757 0 -414 4 -756 8 -762 4 -6 54
-10 114 -10 103 0 108 1 102 20 l-6 20 17 -20 c13 -15 15 -16 11 -3 -2 9 -2
28 2 43 l7 26 42 -36 c23 -19 49 -35 58 -35 10 0 33 -9 52 -21 18 -12 43 -19
53 -16 11 3 20 2 20 -1 0 -11 132 -4 172 9 21 7 36 15 34 18 -2 3 3 12 11 20
13 12 14 11 8 -10 l-8 -24 23 20 c13 11 20 14 16 8 -11 -20 1 -15 24 9 11 12
20 18 20 14 0 -5 7 -3 15 4 8 7 15 9 15 6 0 -4 11 4 24 18 13 15 28 26 33 26
11 0 53 43 53 54 0 5 -8 2 -17 -5 -16 -12 -17 -12 -7 1 7 8 11 27 9 42 -2 16
2 31 7 35 7 3 8 1 4 -5 -4 -7 -1 -12 6 -12 10 0 11 -2 0 -8 -12 -8 -7 -42 7
-42 11 0 35 44 32 59 -1 7 2 10 8 7 6 -4 20 8 30 25 20 32 20 32 -2 63 -16 23
-17 27 -4 17 15 -12 20 -12 30 -1 9 10 9 11 0 6 -9 -5 -11 -2 -7 8 3 9 11 13
18 9 6 -4 5 1 -3 11 -8 9 -20 15 -27 12 -7 -3 -16 -1 -18 3 -3 5 9 8 27 7 31
-1 32 0 31 42 0 23 4 42 9 42 9 0 5 90 -8 180 -1 14 -3 28 -4 33 -1 4 -5 7
-11 7 -5 0 -7 -8 -4 -17 5 -15 4 -15 -4 -3 -6 8 -7 20 -2 29 5 10 2 20 -8 29
-10 7 -12 11 -6 8 6 -3 11 1 11 8 0 8 -7 12 -15 8 -10 -3 -13 -1 -8 6 11 18
-3 52 -22 53 -10 0 -12 3 -5 6 10 4 10 7 0 18 -6 7 -18 22 -26 33 -8 12 -18
19 -22 16 -4 -2 -11 1 -15 7 -4 8 -3 9 4 5 7 -4 12 -3 12 2 0 13 -76 62 -97
62 -15 0 -16 2 -3 10 12 8 11 10 -7 10 -12 0 -27 8 -32 18 -8 13 -10 14 -11 2
0 -10 -3 -11 -8 -4 -4 7 -23 21 -43 32 -26 15 -40 17 -54 10 -12 -7 -16 -7
-11 0 3 5 -7 12 -24 14 -16 2 -26 0 -23 -5 3 -5 -3 -5 -13 1 -18 9 -118 9
-174 -1 -51 -8 -154 -73 -143 -90 3 -5 0 -8 -8 -5 -11 4 -14 58 -17 295 l-2
291 -113 0 c-61 1 -118 -2 -124 -4z m556 -690 c13 -15 21 -17 39 -9 14 6 20
15 17 25 -5 12 -4 13 7 2 11 -11 9 -17 -12 -33 -14 -12 -20 -18 -14 -15 6 3
26 -6 44 -19 35 -26 44 -30 36 -17 -2 4 4 8 15 8 10 0 15 -4 10 -9 -5 -5 8
-27 29 -50 21 -23 36 -45 33 -51 -3 -5 -1 -6 5 -2 7 4 12 1 12 -6 0 -10 2 -10
9 1 5 8 11 9 15 3 3 -5 0 -12 -8 -15 -8 -3 -13 -14 -11 -24 2 -10 4 -22 4 -26
1 -5 4 -6 9 -4 8 6 8 -131 -1 -139 -4 -4 -2 -16 4 -27 7 -11 7 -17 1 -13 -5 3
-12 -8 -16 -25 -3 -17 -10 -28 -15 -24 -6 3 -8 -3 -6 -15 2 -11 0 -19 -4 -17
-10 3 -66 -57 -75 -78 -3 -9 -11 -13 -16 -10 -6 4 -18 1 -27 -6 -24 -21 -159
-36 -223 -26 -30 5 -69 9 -87 10 -17 1 -29 5 -27 9 3 5 10 6 15 3 5 -4 9 -1 9
4 0 6 -5 11 -11 11 -7 0 -23 12 -37 28 -13 15 -21 21 -17 13 6 -9 4 -12 -4 -7
-6 4 -9 11 -6 16 3 5 1 11 -5 15 -6 4 -10 78 -10 195 0 117 4 191 10 195 6 4
8 10 5 15 -8 13 5 38 23 45 12 5 12 1 -4 -16 -14 -16 -5 -13 34 11 28 18 52
37 52 43 0 5 7 7 15 3 8 -3 15 -2 15 3 0 13 -39 20 -43 8 -2 -6 -6 -4 -10 5
-3 10 0 19 9 22 8 3 14 2 14 -3 0 -10 39 -24 55 -21 6 1 27 2 48 2 21 -1 35 3
32 9 -4 5 -1 9 5 9 6 0 9 4 6 8 -11 17 38 5 53 -14z m251 -146 c0 -4 -4 -8 -9
-8 -6 0 -12 4 -15 8 -3 5 1 9 9 9 8 0 15 -4 15 -9z m-5 -339 c-4 -5 -12 -9
-18 -8 -9 0 -8 2 1 6 6 2 9 10 6 15 -4 7 -2 8 5 4 6 -4 9 -12 6 -17z m-18 -33
c0 -14 -33 -14 -46 0 -3 4 2 4 11 1 10 -3 20 -2 23 3 8 14 12 12 12 -4z m37
-206 c-6 -6 -10 -3 -10 10 0 13 4 16 10 10 7 -7 7 -13 0 -20z m51 -1 c-4 -5
-12 -9 -18 -8 -9 0 -8 2 1 6 6 2 9 10 6 15 -4 7 -2 8 5 4 6 -4 9 -12 6 -17z
m-665 -63 c-7 -7 -13 -7 -20 0 -6 6 -3 10 10 10 13 0 16 -4 10 -10z m120 8 c0
-8 -19 -13 -24 -6 -3 5 1 9 9 9 8 0 15 -2 15 -3z m350 2 c0 -2 -7 -7 -16 -10
-8 -3 -12 -2 -9 4 6 10 25 14 25 6z"/>
<path d="M6110 1570 c-8 -5 -12 -12 -9 -15 4 -3 12 1 19 10 14 17 11 19 -10 5z"/>
<path d="M7904 2245 c4 -12 2 -14 -12 -6 -16 8 -18 5 -20 -29 -2 -21 2 -41 8
-45 6 -3 7 -12 3 -18 -14 -21 -10 -1418 4 -1413 6 3 13 2 16 -1 8 -7 194 -6
207 2 5 3 10 22 10 41 0 39 3 41 30 14 11 -11 27 -17 37 -14 14 5 15 4 4 -4
-16 -11 14 -30 90 -56 57 -20 205 -21 252 -1 19 8 37 11 41 8 3 -4 6 0 6 7 0
7 3 11 6 7 4 -3 19 0 34 8 15 8 31 11 34 7 4 -3 4 2 0 11 -3 10 -3 17 2 16 25
-4 40 5 82 49 25 26 46 45 46 42 1 -2 11 4 23 15 12 10 20 22 17 27 -3 4 0 8
5 8 6 0 11 12 11 28 0 21 2 24 10 12 7 -12 12 -8 22 20 7 19 11 38 10 43 -1 4
3 7 9 7 6 0 9 6 6 13 -2 6 3 26 11 42 21 40 28 230 10 265 -7 14 -17 28 -23
32 -6 5 -6 8 1 8 6 0 11 7 11 15 0 8 -4 12 -9 9 -7 -5 -13 18 -9 39 2 15 -30
68 -38 62 -5 -3 -7 4 -4 15 3 12 0 20 -6 20 -7 0 -9 -4 -6 -10 4 -6 -1 -7 -11
-3 -11 4 -13 8 -6 11 7 2 12 8 12 13 0 6 -5 7 -12 3 -7 -4 -8 -3 -4 5 4 6 -9
28 -33 52 -23 22 -41 37 -41 34 0 -3 -13 9 -28 26 -24 27 -32 30 -48 21 -12
-8 -14 -11 -5 -12 8 0 12 -3 8 -6 -3 -3 -11 -3 -17 1 -8 5 -8 11 1 21 9 11 6
14 -16 14 -16 0 -25 3 -22 7 13 12 -30 32 -76 35 -26 2 -47 5 -47 9 0 11 -172
1 -180 -11 -6 -9 -9 -9 -12 0 -2 8 -15 7 -46 -5 -42 -17 -52 -30 -29 -38 6 -2
-1 -4 -17 -4 -15 0 -32 -7 -37 -14 -5 -8 -9 -11 -9 -6 0 4 -11 0 -25 -9 -24
-16 -25 -16 -18 1 5 14 3 16 -8 10 -11 -7 -12 -6 -2 6 16 20 17 31 1 40 -10 7
-10 9 0 9 10 0 12 54 12 254 l-1 254 -111 1 c-97 2 -110 0 -104 -14z m196
-525 c0 -5 -5 -10 -11 -10 -5 0 -7 5 -4 10 3 6 8 10 11 10 2 0 4 -4 4 -10z
m134 -36 c3 -8 2 -12 -4 -9 -6 3 -10 10 -10 16 0 14 7 11 14 -7z m-29 -12 c-3
-3 -11 0 -18 7 -9 10 -8 11 6 5 10 -3 15 -9 12 -12z m551 -64 c5 4 5 3 1 -2
-12 -15 -34 -15 -34 0 0 9 4 11 12 4 7 -5 16 -6 21 -2z m-440 -31 c8 3 14 3
14 0 0 -14 -30 -14 -41 1 -11 14 -11 15 0 5 7 -6 20 -9 27 -6z m137 -11 c-4
-5 1 -7 11 -3 9 4 15 3 11 -2 -3 -6 -14 -9 -25 -8 -10 1 -16 5 -14 9 3 4 -1 5
-9 2 -8 -3 -17 -2 -20 3 -3 4 8 8 23 8 16 1 26 -3 23 -9z m-10 -20 c15 -4 43
-15 62 -26 19 -11 38 -20 43 -21 4 0 21 -13 39 -29 17 -16 34 -26 39 -22 4 4
4 2 1 -4 -4 -7 -1 -17 7 -23 8 -7 17 -27 20 -46 4 -19 14 -41 22 -50 9 -8 12
-15 7 -15 -4 0 -8 -35 -9 -79 -1 -77 -26 -158 -54 -176 -13 -8 -4 -25 13 -25
8 0 8 3 -2 9 -7 5 -9 11 -5 14 5 3 15 -1 21 -8 10 -11 9 -15 -7 -20 -11 -3
-24 -4 -30 0 -5 3 -15 -3 -22 -15 -7 -11 -18 -20 -25 -20 -7 0 -13 -4 -13 -9
0 -14 -28 -23 -110 -35 -42 -7 -50 -11 -35 -17 19 -7 19 -8 -2 -8 -13 -1 -23
3 -23 8 0 5 -26 11 -57 13 -32 3 -69 10 -83 15 -14 6 -28 10 -31 9 -9 -2 -89
86 -90 99 -4 70 5 362 12 378 6 12 32 35 60 52 27 16 49 33 49 37 0 4 7 4 17
1 10 -4 14 -2 9 5 -4 7 0 10 12 7 10 -2 25 1 33 6 14 9 82 6 132 -5z m-263
-35 c0 -13 -29 -35 -37 -27 -3 3 -1 6 5 6 7 0 11 3 11 8 -3 14 1 22 11 22 6 0
10 -4 10 -9z m457 -18 c0 -8 -4 -10 -12 -3 -7 5 -16 6 -20 2 -5 -4 -5 -2 -2 4
9 15 34 13 34 -3z m-517 -42 c0 -6 -4 -12 -8 -15 -5 -3 -9 1 -9 9 0 8 4 15 9
15 4 0 8 -4 8 -9z m590 -175 c-10 -10 -30 0 -30 15 0 6 5 7 10 4 6 -3 10 0 10
7 0 9 3 9 10 -2 5 -8 5 -19 0 -24z m-1 -127 c-22 -13 -31 -11 -17 5 7 8 17 12
22 9 4 -3 2 -9 -5 -14z m-19 -23 c0 -2 -7 -7 -16 -10 -8 -3 -12 -2 -9 4 6 10
25 14 25 6z m204 -32 c3 -8 2 -12 -4 -9 -6 3 -10 10 -10 16 0 14 7 11 14 -7z
m-783 -48 c5 3 9 1 9 -5 0 -5 -9 -9 -19 -8 -12 1 -17 6 -13 16 4 10 7 11 10 3
2 -7 8 -10 13 -6z m490 -59 c-10 -9 -11 -8 -5 6 3 10 9 15 12 12 3 -3 0 -11
-7 -18z m-426 -16 c3 -5 2 -12 -3 -15 -5 -3 -9 1 -9 9 0 17 3 19 12 6z m460
-11 c-3 -5 -12 -10 -18 -10 -7 0 -6 4 3 10 19 12 23 12 15 0z m-738 -152 c-2
-13 -4 -3 -4 22 0 25 2 35 4 23 2 -13 2 -33 0 -45z m328 -27 c3 -5 2 -12 -3
-15 -5 -3 -9 1 -9 9 0 17 3 19 12 6z m365 5 c0 -2 -8 -10 -17 -17 -16 -13 -17
-12 -4 4 13 16 21 21 21 13z m40 -6 c0 -5 -2 -10 -4 -10 -3 0 -8 5 -11 10 -3
6 -1 10 4 10 6 0 11 -4 11 -10z"/>
<path d="M4685 2120 c3 -5 8 -10 11 -10 2 0 4 5 4 10 0 6 -5 10 -11 10 -5 0
-7 -4 -4 -10z"/>
<path d="M3605 1761 c4 -10 2 -11 -8 -3 -7 6 -22 9 -32 7 -11 -2 -25 -4 -32
-4 -6 -1 -19 -8 -27 -17 -11 -10 -16 -11 -16 -3 0 8 -6 6 -18 -4 -10 -10 -22
-14 -27 -10 -4 5 -5 2 -1 -5 6 -9 2 -12 -10 -10 -12 2 -18 -2 -16 -11 2 -8 -3
-11 -11 -8 -8 3 -34 -14 -60 -38 -35 -33 -43 -45 -34 -54 9 -9 8 -11 -4 -6
-11 4 -25 -2 -38 -16 -24 -26 -85 -148 -77 -156 3 -3 -1 -12 -9 -20 -16 -16
-21 -48 -6 -39 11 7 8 -21 -4 -31 -4 -4 -5 -2 0 6 6 10 4 12 -4 7 -9 -6 -9
-11 1 -24 8 -10 9 -13 1 -9 -9 6 -11 -15 -8 -80 3 -70 7 -90 22 -101 16 -13
16 -14 1 -9 -14 5 -17 1 -16 -18 1 -14 6 -25 11 -25 4 0 5 -4 2 -10 -3 -5 -1
-10 6 -10 7 0 9 -3 6 -6 -10 -11 13 -44 31 -45 14 0 14 -2 -3 -9 -18 -8 -18
-9 -2 -9 10 -1 15 -5 12 -11 -3 -5 -2 -10 3 -10 6 0 9 -8 8 -17 0 -10 4 -18
11 -18 6 0 15 -4 20 -9 5 -5 3 -6 -4 -2 -19 10 -16 -2 8 -35 11 -16 24 -27 29
-24 4 3 13 -2 20 -10 7 -8 9 -15 4 -15 -8 0 3 -11 61 -58 14 -11 48 -26 58
-24 4 1 7 -3 7 -10 0 -6 7 -3 15 8 8 10 15 15 14 9 -3 -25 2 -34 18 -28 9 4
14 2 10 -4 -10 -16 86 -34 174 -32 90 3 165 19 152 33 -4 5 -1 7 9 3 9 -3 24
1 35 8 14 11 16 16 6 26 -11 11 -13 10 -13 -4 0 -10 -7 -17 -17 -16 -12 0 -13
2 -5 6 10 4 10 8 -3 17 -13 9 -10 11 15 12 16 1 30 -3 30 -8 0 -5 5 -6 12 -2
7 5 9 2 4 -7 -4 -8 4 -2 17 13 l25 27 18 -21 c11 -12 14 -18 7 -15 -8 5 -11 0
-10 -12 1 -11 10 -22 22 -25 33 -8 200 -10 211 -3 16 9 16 977 0 977 -7 0 -7
3 -1 8 6 4 11 15 13 25 3 15 -8 17 -111 17 -118 0 -146 -9 -127 -39 9 -15 -4
-33 -32 -44 -12 -4 -15 -2 -12 8 4 9 -9 21 -34 34 -23 11 -43 25 -47 31 -3 5
-16 10 -29 10 -12 0 -28 6 -35 13 -11 10 -12 9 -6 -2 6 -10 4 -12 -6 -5 -8 5
-51 9 -97 9 -67 0 -81 -2 -77 -14z m298 -58 c-7 -3 -9 -12 -6 -21 3 -9 3 -14
-1 -11 -4 4 -8 16 -11 27 -3 16 0 19 13 15 9 -4 11 -8 5 -10z m-423 3 c0 -3
-4 -8 -10 -11 -5 -3 -10 -1 -10 4 0 6 5 11 10 11 6 0 10 -2 10 -4z m165 -126
c3 -5 1 -10 -4 -10 -6 0 -11 5 -11 10 0 6 2 10 4 10 3 0 8 -4 11 -10z m29 -21
c-2 -4 23 -9 57 -11 33 -1 63 1 67 6 3 5 -1 6 -8 1 -8 -5 -11 -4 -6 3 4 6 14
8 23 5 11 -4 14 -3 9 5 -5 8 -2 10 8 6 9 -3 13 -10 10 -15 -7 -11 46 -60 57
-53 5 3 9 0 9 -6 0 -6 5 -8 12 -4 19 12 48 12 55 1 3 -6 1 -7 -4 -4 -6 4 -16
1 -22 -7 -9 -11 -8 -15 6 -20 11 -5 22 -1 30 10 7 10 13 13 13 8 0 -6 -3 -14
-7 -18 -10 -10 -11 -367 -2 -387 6 -11 -3 -28 -31 -57 -44 -46 -49 -54 -22
-45 9 3 14 3 11 -1 -6 -6 -28 -12 -77 -20 -8 -1 -17 -7 -20 -13 -10 -15 -180
-9 -229 9 -27 10 -40 11 -36 4 3 -6 -3 -3 -14 7 -11 9 -23 14 -26 10 -4 -3 -7
-1 -7 5 0 7 -19 30 -41 52 -23 22 -38 40 -34 40 4 0 3 6 -3 13 -5 6 -15 31
-21 55 -7 23 -16 40 -21 37 -4 -3 -6 3 -4 12 2 10 5 43 7 74 2 48 0 56 -12 53
-9 -3 -6 1 7 7 12 7 22 18 22 25 0 21 34 94 43 94 5 0 15 7 23 15 9 8 12 15 7
15 -5 0 -14 -5 -20 -11 -7 -7 -13 -7 -17 -1 -3 5 6 13 22 16 55 13 122 50 116
66 -4 11 -2 12 6 4 14 -14 49 -7 51 10 1 6 1 18 0 26 -2 13 -1 13 8 0 5 -8 8
-17 5 -21z m-53 4 c13 -16 12 -17 -3 -4 -17 13 -22 21 -14 21 2 0 10 -8 17
-17z m-350 -40 c13 -16 12 -17 -3 -4 -17 13 -22 21 -14 21 2 0 10 -8 17 -17z
m264 -23 c-3 -5 -12 -10 -18 -10 -7 0 -6 4 3 10 19 12 23 12 15 0z m426 -513
c-10 -9 -11 -8 -5 6 3 10 9 15 12 12 3 -3 0 -11 -7 -18z m34 -27 c-3 -5 -12
-10 -18 -10 -7 0 -6 4 3 10 19 12 23 12 15 0z"/>
<path d="M5258 1764 c-16 -8 -28 -12 -28 -9 0 4 -13 -3 -29 -14 -16 -12 -34
-21 -40 -21 -6 0 -18 -11 -27 -25 -13 -19 -20 -23 -34 -15 -13 7 -20 6 -23 -3
-4 -9 -6 -9 -6 1 -1 7 -5 11 -10 7 -5 -3 -12 -1 -16 4 -3 6 3 8 15 6 11 -2 20
-1 21 3 0 4 2 15 4 24 2 10 -2 21 -7 25 -7 3 -8 1 -4 -5 4 -7 1 -12 -9 -12
-10 0 -13 -5 -9 -12 5 -7 3 -8 -5 -4 -7 5 -10 11 -7 14 3 3 1 11 -5 19 -8 9
-39 13 -105 13 l-93 0 0 -507 c-1 -319 3 -514 9 -523 9 -13 10 -13 10 0 0 9 3
11 8 5 9 -13 185 -14 194 0 5 6 8 6 8 -2 0 -7 4 -13 10 -13 6 0 10 126 10 353
0 193 0 361 0 372 0 13 11 25 30 33 17 8 28 18 24 23 -3 5 -2 8 3 7 14 -4 53
13 53 23 0 6 5 7 10 4 6 -3 10 -1 10 5 0 6 5 8 10 5 6 -4 16 -2 23 3 20 15 57
21 57 9 0 -8 3 -9 8 -1 8 11 51 12 70 0 7 -4 12 -1 12 8 0 8 4 17 9 20 5 4 7
-3 4 -14 -4 -16 0 -20 21 -20 15 0 25 4 21 10 -3 5 -13 6 -23 3 -14 -5 -13 -2
3 11 11 10 13 14 5 10 -12 -6 -13 -5 -3 7 7 9 12 48 12 96 0 71 -2 81 -16 76
-11 -4 -14 -2 -9 5 8 14 -20 6 -43 -12 -12 -9 -13 -8 -9 5 5 13 -3 16 -40 17
-26 1 -59 -5 -74 -14z m-107 -77 c-10 -9 -11 -8 -5 6 3 10 9 15 12 12 3 -3 0
-11 -7 -18z m86 -114 c0 -7 -3 -11 -5 -8 -3 3 -10 1 -16 -5 -8 -6 -12 -3 -12
8 0 10 8 18 16 18 9 0 17 -6 17 -13z m47 9 c3 -5 -1 -9 -9 -9 -8 0 -12 4 -9 9
3 4 7 8 9 8 2 0 6 -4 9 -8z m-208 -87 c-4 -12 0 -14 22 -10 23 4 22 3 -6 -8
-24 -9 -30 -15 -21 -24 8 -8 7 -13 -2 -18 -7 -5 -10 -4 -5 3 3 5 1 12 -5 14
-7 2 -7 12 2 31 13 28 25 38 15 12z"/>
<path d="M7198 1772 c-16 -2 -28 -7 -28 -12 0 -4 -6 -8 -12 -7 -34 1 -46 -6
-61 -35 -15 -28 -17 -29 -13 -8 4 21 3 23 -7 10 -17 -21 -53 -40 -74 -40 -11
0 -14 3 -8 8 14 9 13 53 0 50 -5 -2 -9 -6 -8 -10 1 -3 -4 -9 -12 -12 -11 -4
-12 0 -5 19 l9 23 -102 0 -102 -1 -1 -505 c-1 -366 1 -509 10 -516 14 -14 186
-15 186 -1 0 6 4 4 9 -3 11 -17 21 -17 32 0 5 7 9 170 9 362 l0 350 28 29 c15
16 21 27 13 25 -7 -2 -16 4 -18 12 -3 9 -1 11 4 5 14 -18 39 -16 61 6 12 11
19 25 16 31 -5 7 -2 8 6 3 10 -6 12 -4 6 11 -4 10 -4 15 0 11 4 -4 13 -2 21 5
11 9 13 8 11 -3 -2 -8 -7 -17 -13 -21 -6 -5 -3 -8 7 -8 9 0 19 6 21 13 3 6 6
7 6 1 1 -6 21 -8 56 -4 36 4 55 2 55 -4 0 -6 4 -4 9 4 6 8 7 18 4 24 -4 5 -1
6 6 2 7 -5 10 -14 7 -22 -4 -10 2 -14 20 -14 15 0 23 -4 19 -10 -4 -6 -2 -9 4
-8 6 2 22 -10 36 -27 15 -16 23 -23 19 -15 -4 9 -3 12 2 7 5 -5 9 -12 10 -15
7 -51 18 -91 23 -88 3 2 6 -109 6 -247 0 -139 2 -290 5 -336 l5 -84 112 -1
c82 -1 114 2 118 12 2 7 4 168 4 357 0 268 -3 344 -12 338 -9 -5 -9 -4 0 8 14
17 -7 107 -34 148 -10 14 -18 31 -18 36 0 6 -10 11 -22 13 -13 2 -23 8 -23 13
0 6 6 7 13 4 6 -4 3 0 -8 9 -11 8 -28 23 -37 32 -22 21 -66 44 -86 44 -8 0
-23 7 -32 15 -9 8 -43 17 -75 20 -42 3 -52 2 -35 -4 23 -8 24 -9 3 -10 -12 -1
-24 3 -28 9 -5 9 -58 10 -117 2z m36 -10 c3 -5 -1 -9 -9 -9 -8 0 -12 4 -9 9 3
4 7 8 9 8 2 0 6 -4 9 -8z m299 -67 c4 -8 3 -16 -1 -19 -4 -3 -9 4 -9 15 -2 23
3 25 10 4z m-156 -131 c-3 -3 -12 -4 -19 -1 -8 3 -5 6 6 6 11 1 17 -2 13 -5z
m39 -31 c-7 -7 -26 7 -26 19 0 6 6 6 15 -2 9 -7 13 -15 11 -17z"/>
<path d="M4410 1731 c-1 -309 0 -995 2 -996 8 -8 238 -11 239 -3 1 4 1 17 1
28 0 11 0 241 -1 510 l-1 490 -120 -1 -120 -2 0 -26z"/>
<path d="M5045 1750 c3 -5 8 -10 11 -10 2 0 4 5 4 10 0 6 -5 10 -11 10 -5 0
-7 -4 -4 -10z"/>
<path d="M280 1336 c0 -2 7 -7 16 -10 8 -3 12 -2 9 4 -6 10 -25 14 -25 6z"/>
<path d="M3310 850 c0 -5 5 -10 11 -10 5 0 7 5 4 10 -3 6 -8 10 -11 10 -2 0
-4 -4 -4 -10z"/>
</g>
</svg>
