<?xml version="1.0" standalone="no"?>
<!DOCTYPE svg PUBLIC "-//W3C//DTD SVG 20010904//EN"
 "http://www.w3.org/TR/2001/REC-SVG-20010904/DTD/svg10.dtd">
<svg version="1.0" xmlns="http://www.w3.org/2000/svg"
 width="550.000000pt" height="309.000000pt" viewBox="0 0 550.000000 309.000000"
 preserveAspectRatio="xMidYMid meet">

<g transform="translate(0.000000,309.000000) scale(0.100000,-0.100000)"
fill="#000000" stroke="none">
<path d="M2357 2433 c-4 -3 -7 -64 -7 -135 l0 -128 35 0 c34 0 35 1 35 40 0
36 3 40 24 40 18 0 31 -10 47 -40 20 -36 27 -40 61 -40 21 0 38 2 38 5 0 3
-12 24 -26 46 -25 40 -25 41 -8 77 24 52 10 101 -36 124 -35 18 -149 25 -163
11z m117 -59 c9 -4 16 -18 16 -34 0 -28 -15 -40 -51 -40 -15 0 -19 7 -19 33 0
46 14 56 54 41z"/>
<path d="M2647 2434 c-4 -4 -7 -65 -7 -136 l0 -128 100 0 100 0 0 30 0 30 -66
0 c-62 0 -65 1 -62 23 3 19 10 22 56 25 47 3 52 5 52 27 0 22 -5 24 -52 27
-46 3 -53 6 -56 26 -3 21 0 22 63 22 l66 0 -3 28 c-3 27 -3 27 -93 30 -50 1
-94 0 -98 -4z"/>
<path d="M2984 2429 c-49 -14 -77 -51 -82 -112 -5 -67 14 -108 62 -131 40 -19
79 -21 108 -5 15 8 27 8 44 0 24 -10 24 -10 24 49 0 59 -1 60 -28 60 -19 0
-30 -7 -37 -22 -12 -26 -67 -37 -91 -17 -19 16 -18 84 2 103 20 20 62 20 84 1
14 -13 22 -14 44 -4 14 7 26 16 26 20 0 10 -59 59 -73 60 -7 0 -21 2 -32 4
-11 1 -34 -1 -51 -6z"/>
<path d="M3220 2305 l0 -135 35 0 35 0 0 135 0 135 -35 0 -35 0 0 -135z"/>
<path d="M3455 2433 c-122 -32 -128 -211 -7 -253 37 -13 47 -13 84 0 58 21 83
58 83 125 0 46 -4 58 -29 84 -25 26 -86 54 -106 50 -3 -1 -14 -4 -25 -6z m79
-85 c35 -50 8 -108 -50 -108 -37 0 -54 21 -54 66 0 59 72 88 104 42z"/>
<path d="M3838 2376 l-3 -59 -65 56 c-36 31 -68 57 -72 57 -5 0 -8 -58 -8
-130 l0 -130 30 0 c29 0 29 1 32 61 l3 60 70 -60 70 -61 3 122 c1 67 0 128 -2
135 -3 7 -17 12 -30 11 -23 -2 -25 -6 -28 -62z"/>
<path d="M1470 1800 l0 -130 83 0 c69 0 87 3 100 18 25 27 22 78 -6 98 l-23
17 24 24 c27 27 23 57 -10 86 -15 13 -38 17 -94 17 l-74 0 0 -130z m120 65
c15 -18 7 -31 -25 -37 -22 -5 -25 -2 -25 23 0 22 5 29 19 29 10 0 24 -7 31
-15z m5 -115 c0 -20 -6 -26 -27 -28 -25 -3 -28 0 -28 28 0 28 3 31 28 28 21
-2 27 -8 27 -28z"/>
<path d="M1783 1911 c-111 -70 -64 -241 66 -241 83 0 130 48 131 133 0 40 -5
53 -33 83 -28 31 -41 37 -83 41 -37 3 -57 -1 -81 -16z m112 -61 c25 -28 25
-88 0 -106 -46 -34 -105 -5 -105 53 0 63 66 96 105 53z"/>
<path d="M2050 1829 c0 -98 1 -101 29 -130 25 -24 38 -29 80 -29 38 0 56 6 77
23 25 22 27 29 31 130 l5 107 -36 0 -36 0 0 -94 c0 -103 -10 -123 -55 -112
-25 6 -25 8 -25 106 l0 100 -35 0 -35 0 0 -101z"/>
<path d="M2330 1800 l0 -130 35 0 c33 0 35 2 35 35 0 32 3 35 28 35 21 0 32
-8 46 -35 17 -31 24 -35 58 -35 l40 0 -23 38 c-12 20 -26 41 -30 46 -4 5 1 20
11 34 34 42 20 110 -27 131 -13 6 -57 11 -98 11 l-75 0 0 -130z m146 47 c8
-26 -27 -57 -56 -50 -27 7 -29 70 -2 75 29 7 51 -3 58 -25z"/>
<path d="M2684 1911 c-45 -28 -64 -59 -64 -109 0 -54 22 -97 60 -117 34 -18
93 -20 122 -4 14 8 23 8 31 0 21 -21 27 -11 27 44 0 54 0 55 -30 55 -16 0 -30
-4 -30 -9 0 -18 -31 -41 -54 -41 -48 0 -74 71 -42 115 17 23 76 25 90 3 8 -13
15 -14 35 -5 14 6 27 12 29 13 10 6 -22 46 -48 59 -39 20 -89 19 -126 -4z"/>
<path d="M2973 1911 c-75 -47 -84 -149 -19 -208 30 -28 43 -33 83 -33 85 1
133 48 133 133 0 40 -5 53 -33 83 -28 31 -41 37 -83 41 -37 3 -57 -1 -81 -16z
m104 -56 c38 -26 37 -92 -1 -117 -19 -13 -59 -9 -78 9 -24 22 -24 77 2 103 24
24 48 25 77 5z"/>
<path d="M3289 1907 c-68 -45 -74 -144 -14 -204 28 -28 40 -33 82 -33 27 0 54
5 60 11 8 8 17 8 31 0 31 -17 32 -15 32 44 0 54 -1 55 -29 55 -20 0 -34 -8
-45 -25 -28 -43 -89 -28 -101 25 -14 62 42 105 94 74 26 -15 34 -16 58 -5 l28
13 -37 34 c-47 43 -106 47 -159 11z"/>
<path d="M3560 1801 l0 -131 30 0 c30 0 30 1 30 55 0 30 3 55 6 55 3 0 34 -25
69 -55 34 -30 65 -55 69 -55 3 0 6 59 6 130 l0 130 -30 0 c-30 0 -30 -1 -30
-55 0 -30 -3 -55 -6 -55 -4 0 -30 19 -58 43 -96 80 -86 87 -86 -62z"/>
<path d="M3840 1800 l0 -130 95 0 95 0 0 30 0 30 -60 0 c-53 0 -60 2 -60 20 0
17 7 20 49 20 54 0 66 9 56 40 -5 16 -15 20 -56 20 -42 0 -49 3 -49 20 0 18 7
20 60 20 l60 0 0 30 0 30 -95 0 -95 0 0 -130z"/>
<path d="M1802 1283 l3 -138 33 -3 c34 -3 33 -5 36 68 1 23 5 25 54 28 50 3
52 4 52 32 0 28 -2 29 -52 32 -49 3 -53 5 -53 28 0 23 4 25 58 28 56 3 57 4
57 32 l0 30 -95 0 -96 0 3 -137z"/>
<path d="M2060 1280 l0 -130 35 0 c34 0 35 1 35 40 0 35 3 40 23 40 15 0 29
-12 45 -40 20 -35 27 -40 57 -40 19 0 35 3 35 6 0 3 -12 25 -26 50 -23 40 -24
45 -10 60 23 22 20 86 -5 118 -19 24 -26 26 -105 26 l-84 0 0 -130z m130 66
c6 -8 10 -25 8 -38 -2 -18 -10 -24 -35 -26 -32 -3 -33 -2 -33 37 0 36 3 41 24
41 13 0 29 -7 36 -14z"/>
<path d="M2385 1280 l-65 -130 33 0 c20 0 39 8 50 20 11 14 29 20 56 20 31 0
41 -4 46 -20 5 -16 15 -20 46 -20 l39 0 -65 130 c-36 72 -67 130 -70 130 -3 0
-34 -58 -70 -130z m73 -48 c-28 -5 -33 4 -19 35 l13 28 12 -30 c11 -27 11 -30
-6 -33z"/>
<path d="M2636 1373 c-8 -49 -8 -152 0 -192 6 -26 11 -31 35 -31 29 0 29 1 29
61 l0 61 68 -61 c38 -34 72 -61 75 -61 4 0 7 59 7 130 l0 130 -35 0 -35 0 0
-56 0 -56 -41 34 c-22 18 -53 43 -68 56 l-28 22 -7 -37z"/>
<path d="M2959 1393 c-38 -24 -59 -65 -59 -117 0 -38 6 -52 33 -82 28 -31 41
-37 83 -41 53 -4 103 18 123 56 10 17 7 20 -20 26 -21 5 -36 2 -48 -9 -41 -37
-101 -6 -101 53 0 62 58 94 101 56 19 -18 69 -11 69 10 0 7 -14 25 -31 39 -36
31 -108 35 -150 9z"/>
<path d="M3210 1280 l0 -130 35 0 35 0 0 55 0 55 45 0 45 0 0 -55 0 -55 35 0
35 0 0 130 0 130 -35 0 c-35 0 -35 0 -35 -45 l0 -45 -45 0 -45 0 0 45 c0 45 0
45 -35 45 l-35 0 0 -130z"/>
<path d="M3510 1280 l0 -130 95 0 95 0 0 30 0 30 -60 0 c-53 0 -60 2 -60 19 0
17 8 20 53 23 48 3 52 5 55 31 3 27 2 27 -52 27 -53 0 -56 1 -56 26 0 25 2 25
58 23 55 -3 57 -2 60 24 l3 27 -95 0 -96 0 0 -130z"/>
<path d="M1535 889 c-55 -28 -81 -119 -51 -178 21 -40 71 -71 116 -71 39 0 93
29 109 59 10 17 7 20 -19 26 -20 4 -37 1 -52 -9 -30 -21 -54 -20 -78 4 -26 26
-26 81 -2 103 23 21 60 22 83 2 19 -18 69 -11 69 10 0 7 -14 25 -31 39 -24 20
-41 26 -77 25 -26 0 -56 -5 -67 -10z"/>
<path d="M1824 881 c-20 -12 -38 -36 -49 -64 -21 -56 -10 -99 36 -143 26 -24
39 -29 82 -29 38 0 61 6 84 23 66 47 67 152 2 206 -38 33 -108 35 -155 7z
m118 -58 c24 -22 24 -77 -2 -103 -27 -27 -56 -25 -87 6 -60 61 25 155 89 97z"/>
<path d="M2080 870 c0 -19 -3 -79 -7 -133 l-6 -98 34 3 c34 3 34 4 37 57 l3
54 30 -29 29 -28 29 28 28 27 7 -32 c3 -17 6 -42 6 -55 0 -20 5 -24 30 -24
l30 0 0 78 c0 42 -3 101 -7 130 l-6 53 -58 -57 -59 -58 -60 59 -60 59 0 -34z"/>
<path d="M2370 875 c0 -22 4 -25 40 -25 l40 0 0 -105 0 -105 34 0 c25 0 33 4
33 18 0 9 1 56 2 105 l1 87 35 0 c31 0 35 3 35 25 l0 25 -110 0 -110 0 0 -25z"/>
<path d="M2640 770 l0 -130 100 0 100 0 0 30 0 30 -65 0 c-58 0 -65 2 -65 19
0 17 8 20 53 23 48 3 52 5 55 30 3 26 1 27 -50 30 -46 3 -53 6 -56 26 -3 21 0
22 62 22 64 0 66 1 66 25 l0 25 -100 0 -100 0 0 -130z"/>
</g>
</svg>
