<svg width="48" height="48" viewBox="0 0 48 48" fill="none" xmlns="http://www.w3.org/2000/svg">
<path d="M0 24C0 10.7452 10.7452 0 24 0C37.2548 0 48 10.7452 48 24C48 37.2548 37.2548 48 24 48C10.7452 48 0 37.2548 0 24Z" fill="#F8D576"/>
<path d="M27 33V31C27 30.2044 26.6837 29.4415 26.1211 28.8789C25.5585 28.3163 24.7956 28 24 28H18C17.2044 28 16.4415 28.3163 15.8789 28.8789C15.3163 29.4415 15 30.2044 15 31V33C15 33.5523 14.5523 34 14 34C13.4477 34 13 33.5523 13 33V31C13 29.6739 13.5272 28.4025 14.4648 27.4648C15.4025 26.5272 16.6739 26 18 26H24C25.3261 26 26.5975 26.5272 27.5352 27.4648C28.4728 28.4025 29 29.6739 29 31V33C29 33.5523 28.5523 34 28 34C27.4477 34 27 33.5523 27 33Z" fill="#2C2C2C"/>
<path d="M29.9961 19C29.9961 18.3355 29.7757 17.6896 29.3691 17.1641C28.9624 16.6385 28.3923 16.2625 27.749 16.0957C27.2145 15.9571 26.8936 15.4116 27.0322 14.877C27.1709 14.3424 27.7164 14.0216 28.251 14.1602C29.3231 14.4382 30.2724 15.0645 30.9502 15.9405C31.628 16.8164 31.9961 17.8924 31.9961 19C31.9961 20.1076 31.628 21.1836 30.9502 22.0596C30.2723 22.9356 29.3231 23.5619 28.251 23.8399C27.7164 23.9784 27.1709 23.6576 27.0322 23.1231C26.8936 22.5885 27.2145 22.043 27.749 21.9043C28.3923 21.7375 28.9624 21.3616 29.3691 20.836C29.7758 20.3104 29.9961 19.6645 29.9961 19Z" fill="#2C2C2C"/>
<path d="M33 33.0002V31.0011L32.9893 30.7531C32.9411 30.1769 32.7275 29.625 32.3711 29.1652C31.9639 28.6399 31.3936 28.264 30.75 28.0978C30.2153 27.9597 29.8942 27.4148 30.0322 26.88C30.1704 26.3454 30.7153 26.0242 31.25 26.1623C32.3226 26.4392 33.2734 27.0641 33.9522 27.9396C34.6308 28.8151 34.9992 29.8915 35 30.9992V33.0002C34.9999 33.5524 34.5523 34.0002 34 34.0002C33.4478 34.0002 33.0001 33.5524 33 33.0002Z" fill="#2C2C2C"/>
<path d="M24 19C24 17.3431 22.6569 16 21 16C19.3431 16 18 17.3431 18 19C18 20.6569 19.3431 22 21 22C22.6569 22 24 20.6569 24 19ZM26 19C26 21.7614 23.7614 24 21 24C18.2386 24 16 21.7614 16 19C16 16.2386 18.2386 14 21 14C23.7614 14 26 16.2386 26 19Z" fill="#2C2C2C"/>
</svg>
