<?xml version="1.0" standalone="no"?>
<!DOCTYPE svg PUBLIC "-//W3C//DTD SVG 20010904//EN"
 "http://www.w3.org/TR/2001/REC-SVG-20010904/DTD/svg10.dtd">
<svg version="1.0" xmlns="http://www.w3.org/2000/svg"
 width="3840.000000pt" height="2160.000000pt" viewBox="0 0 3840.000000 2160.000000"
 preserveAspectRatio="xMidYMid meet">

<g transform="translate(0.000000,2160.000000) scale(0.100000,-0.100000)"
fill="#000000" stroke="none">
<path d="M30880 20803 c-124 -68 -304 -167 -400 -220 -96 -53 -238 -131 -315
-173 -343 -188 -405 -221 -411 -220 -4 1 -10 -2 -13 -7 -8 -12 -308 -175 -317
-173 -4 1 -10 -2 -13 -7 -7 -10 -77 -49 -1056 -578 -544 -295 -1009 -540
-1014 -536 -2 1 -7 -1 -10 -6 -17 -26 -1160 -604 -1376 -697 -137 -58 -205
-73 -460 -102 -27 -3 -66 -7 -85 -10 -19 -2 -82 -7 -140 -10 -58 -4 -107 -8
-109 -10 -4 -3 24 -89 101 -309 33 -93 61 -174 62 -180 1 -5 4 -14 7 -20 5 -8
39 -105 44 -125 1 -3 5 -12 8 -20 12 -28 79 -205 81 -215 2 -5 9 -23 15 -40 7
-16 14 -34 16 -40 1 -5 10 -28 20 -50 9 -22 18 -44 20 -50 2 -11 16 -42 84
-195 51 -114 130 -245 195 -326 135 -168 375 -251 641 -221 222 25 479 124
994 381 215 108 666 343 836 436 28 15 91 49 140 75 397 212 1175 643 1835
1015 171 97 741 418 808 457 l42 24 0 1139 c0 627 -1 1140 -2 1139 -2 -1 -104
-57 -228 -126z"/>
<path d="M15899 19836 c-2 -2 -44 -7 -94 -11 -656 -47 -1776 -361 -2750 -770
-457 -193 -967 -442 -1365 -667 -1604 -909 -2843 -2072 -3664 -3440 -172 -288
-366 -662 -448 -866 -149 -374 -249 -780 -289 -1187 -16 -155 -16 -605 -1
-760 42 -415 115 -756 247 -1150 217 -650 565 -1271 983 -1755 128 -149 332
-345 458 -441 54 -41 146 -111 204 -155 601 -459 1345 -798 2245 -1023 361
-91 924 -180 1295 -206 52 -4 111 -8 130 -10 247 -24 1091 -24 1345 -1 22 3
83 7 135 10 288 19 671 65 1045 126 66 11 138 22 160 26 103 15 372 68 580
114 127 28 241 53 255 56 142 29 706 181 1000 270 238 72 749 242 935 311 66
25 140 52 165 60 238 80 1422 560 2015 816 461 199 456 197 970 429 642 291
1235 573 1940 921 l490 243 11 -30 c18 -49 80 -197 159 -381 40 -93 107 -251
148 -350 211 -505 262 -626 340 -815 46 -113 120 -293 164 -400 44 -107 110
-267 146 -355 36 -88 83 -207 105 -265 46 -125 71 -175 124 -253 95 -140 255
-259 427 -318 152 -53 111 -51 1706 -51 814 0 1508 1 1542 1 l63 1 -60 119
c-33 65 -60 121 -60 123 0 3 -58 124 -129 269 -71 145 -185 381 -254 524 -68
143 -156 325 -195 405 -38 80 -81 170 -95 200 -14 30 -73 154 -132 275 -59
121 -131 270 -160 330 -29 61 -94 196 -145 300 -51 105 -115 237 -142 295 -57
119 -84 176 -373 775 -115 237 -245 507 -290 600 -45 94 -111 231 -147 304
-64 130 -65 133 -44 145 12 7 100 57 196 111 206 116 529 301 661 378 52 30
166 96 254 147 805 468 1713 1021 2473 1506 111 71 244 155 294 188 51 32 215
139 365 238 l273 180 0 1319 0 1320 -32 -17 c-18 -9 -208 -116 -423 -237 -214
-120 -520 -292 -680 -382 -159 -89 -364 -204 -455 -255 -91 -51 -208 -116
-260 -145 -52 -29 -212 -117 -355 -197 -304 -169 -784 -435 -1005 -556 -85
-47 -218 -120 -295 -162 -141 -78 -937 -511 -1180 -643 -71 -38 -182 -98 -245
-132 -229 -124 -526 -283 -564 -302 l-39 -20 -40 81 c-21 45 -47 101 -57 126
-10 25 -54 124 -98 220 -44 96 -121 267 -172 380 -51 113 -115 255 -142 315
-28 61 -59 128 -68 150 -37 83 -109 243 -143 315 -19 41 -46 102 -60 135 -14
33 -47 105 -72 160 -26 55 -62 133 -80 175 -36 82 -191 429 -250 555 -20 44
-43 94 -50 110 -28 63 -105 233 -138 305 -19 41 -49 108 -66 147 -17 40 -54
121 -81 179 -28 58 -50 108 -50 110 0 4 -72 165 -260 579 -37 83 -88 195 -113
250 -25 55 -61 134 -80 175 -19 41 -48 107 -65 145 -17 39 -51 113 -75 165
-25 53 -59 130 -77 173 l-32 77 -1648 0 -1649 0 -57 -107 c-31 -60 -83 -155
-114 -213 -32 -58 -78 -143 -103 -190 -25 -47 -127 -238 -227 -425 -101 -187
-219 -407 -263 -490 -44 -82 -110 -206 -147 -275 -37 -69 -104 -195 -150 -280
-45 -85 -110 -207 -145 -270 -34 -63 -99 -185 -145 -270 -46 -85 -111 -207
-145 -270 -34 -63 -102 -189 -150 -280 -140 -262 -318 -594 -490 -915 -59
-110 -141 -263 -183 -340 -41 -77 -105 -196 -142 -265 -98 -181 -207 -386
-385 -720 -87 -162 -199 -371 -250 -465 -51 -93 -132 -244 -180 -335 -112
-210 -218 -408 -310 -580 -94 -173 -403 -751 -508 -945 -44 -82 -110 -206
-147 -275 -37 -69 -107 -199 -155 -290 -48 -91 -114 -212 -145 -270 -32 -58
-65 -120 -75 -139 l-17 -33 109 6 c59 4 119 9 133 11 14 2 63 6 110 10 47 4
96 8 110 10 14 2 54 6 90 10 270 26 833 131 1155 215 804 209 1445 491 1963
862 88 64 128 100 172 158 161 212 389 657 818 1600 68 150 108 240 297 660
376 838 623 1372 834 1805 260 533 296 605 304 605 9 0 -85 232 702 -1740 818
-2050 775 -1942 786 -1956 11 -14 -178 -113 -991 -519 -1845 -922 -3199 -1530
-4115 -1847 -518 -179 -1600 -461 -2425 -632 -287 -59 -591 -118 -680 -132
-19 -3 -138 -23 -265 -44 -525 -88 -1195 -170 -1605 -195 -58 -4 -116 -8 -129
-10 -151 -24 -1183 -24 -1331 -1 -14 2 -61 7 -105 10 -156 12 -369 41 -597 81
-336 60 -736 197 -989 341 -174 98 -350 238 -424 336 -463 611 -57 1889 1006
3162 798 956 1847 1786 3064 2424 736 385 1575 706 2400 917 293 75 952 216
1185 254 110 17 179 26 375 47 87 9 387 13 458 5 37 -3 67 -3 67 2 0 64 -309
1102 -409 1377 -139 381 -173 443 -323 591 -247 247 -480 385 -750 445 -68 16
-466 32 -479 20z"/>
<path d="M7527 6192 c-16 -3 -17 -74 -17 -978 l0 -974 10983 0 10982 0 -2 977
-3 976 -10963 1 c-6030 1 -10971 0 -10980 -2z"/>
<path d="M7361 3038 l-152 -213 218 -3 218 -2 190 191 c104 105 198 201 208
215 l18 24 -275 0 -274 0 -151 -212z"/>
<path d="M1860 2778 c-304 -22 -598 -121 -811 -274 -165 -119 -338 -329 -407
-496 -68 -164 -97 -467 -63 -658 45 -253 168 -487 348 -664 332 -325 888 -443
1551 -331 149 26 384 83 449 110 l36 15 -6 98 c-4 53 -7 152 -7 219 l0 121
-47 -15 c-98 -29 -331 -83 -428 -98 -143 -22 -400 -30 -515 -16 -326 40 -544
171 -656 393 -61 120 -79 204 -78 363 1 122 4 151 28 228 48 161 121 270 239
360 174 134 376 189 667 182 204 -5 430 -46 695 -127 l110 -34 0 228 0 227
-85 27 c-376 117 -707 164 -1020 142z"/>
<path d="M28752 2768 c-313 -17 -613 -116 -833 -274 -152 -110 -309 -294 -394
-463 -15 -30 -37 -95 -50 -145 -79 -311 -52 -601 80 -872 227 -467 672 -705
1320 -705 300 0 531 36 903 143 l42 12 0 224 c0 208 -1 223 -17 218 -324 -96
-524 -128 -788 -129 -158 0 -208 4 -295 22 -343 72 -540 249 -611 549 -18 73
-20 107 -16 217 6 149 22 215 79 335 33 70 56 100 128 172 75 74 102 93 191
136 150 73 239 93 439 99 185 6 315 -7 515 -52 106 -24 321 -83 368 -101 16
-6 17 12 17 219 l0 226 -92 30 c-190 60 -376 101 -573 125 -161 20 -255 23
-413 14z"/>
<path d="M31304 2770 c-516 -40 -944 -293 -1134 -670 -186 -368 -167 -852 46
-1198 60 -98 223 -262 329 -331 153 -100 345 -180 533 -221 48 -11 164 -25
259 -32 542 -38 984 100 1283 401 218 220 321 487 322 831 0 586 -353 1019
-957 1170 -178 45 -468 66 -681 50z m412 -430 c114 -27 172 -51 253 -104 89
-59 178 -157 224 -244 104 -197 129 -486 62 -716 -66 -227 -182 -373 -370
-467 -131 -64 -215 -82 -390 -83 -177 0 -237 13 -370 78 -145 72 -268 186
-331 308 -37 73 -72 208 -85 328 -33 302 83 614 284 766 193 144 464 195 723
134z"/>
<path d="M21552 2758 c-217 -14 -500 -75 -664 -144 -304 -127 -570 -410 -662
-701 -69 -222 -56 -564 30 -805 58 -161 127 -270 252 -400 122 -127 264 -214
458 -281 447 -155 1009 -143 1782 38 l112 27 0 619 0 620 -522 -3 -523 -3 -43
-23 c-56 -30 -121 -129 -178 -272 l-43 -105 377 -5 377 -5 3 -256 2 -257 -87
-16 c-210 -38 -335 -48 -523 -43 -220 5 -328 28 -480 103 -80 39 -109 61 -180
133 -101 101 -156 202 -191 346 -30 123 -30 297 0 410 36 139 92 237 190 336
73 73 100 93 181 132 276 133 631 153 1090 61 103 -20 293 -66 373 -90 16 -5
17 8 15 218 l-3 223 -95 27 c-323 93 -715 137 -1048 116z"/>
<path d="M3387 2722 c-16 -3 -17 -86 -17 -1173 0 -772 3 -1169 10 -1170 6 0
138 -1 295 -1 157 0 290 1 295 1 7 1 10 327 10 956 0 525 3 956 8 956 35 6
620 4 737 -2 174 -9 258 -31 328 -84 121 -92 141 -298 42 -428 -78 -102 -183
-133 -495 -147 -183 -9 -219 -13 -240 -28 -49 -37 -121 -138 -181 -256 l-61
-121 290 -5 c160 -3 293 -7 295 -10 3 -3 125 -189 272 -415 146 -225 268 -412
271 -414 6 -6 653 -5 659 1 3 3 -135 223 -306 489 -171 266 -313 489 -316 495
-2 6 38 31 89 56 196 95 296 178 346 286 47 102 65 183 65 297 -1 120 -20 211
-69 309 -116 240 -348 365 -744 402 -73 7 -1550 12 -1583 6z"/>
<path d="M9053 2722 l-23 -3 0 -1176 0 -1175 678 5 c708 5 767 8 972 53 357
78 640 286 786 575 95 190 129 355 121 594 -7 232 -50 380 -166 580 -54 93
-207 254 -293 309 -219 137 -415 192 -838 232 -73 7 -1192 12 -1237 6z m1267
-436 c121 -23 185 -43 269 -84 93 -45 220 -163 274 -253 100 -169 128 -412 72
-629 -49 -193 -180 -359 -345 -438 -136 -65 -293 -97 -518 -105 -56 -2 -105
-7 -108 -10 -4 -4 -11 -4 -17 0 -6 3 -78 7 -161 7 l-151 1 -3 755 c-1 415 0
761 3 768 7 19 572 10 685 -12z"/>
<path d="M12087 2722 c-16 -3 -17 -87 -17 -1178 l0 -1174 310 0 310 0 0 1175
c0 646 -3 1175 -7 1176 -25 3 -582 3 -596 1z"/>
<path d="M13158 2661 c-55 -121 -148 -332 -148 -336 0 -3 205 -5 455 -5 l455
0 0 -974 0 -973 300 -1 300 0 0 973 0 974 353 3 352 3 50 25 c38 19 58 38 82
78 27 45 113 267 113 291 0 4 -513 8 -1141 8 l-1140 0 -31 -66z"/>
<path d="M6290 1550 c0 -773 3 -1170 10 -1171 13 -1 1316 -1 1798 0 l377 1 88
198 c48 108 87 200 87 204 0 3 -390 6 -867 6 -478 0 -876 0 -886 1 -16 1 -17
42 -15 764 l3 762 837 1 c461 0 840 3 843 5 2 3 -26 93 -63 200 l-67 194
-1073 3 -1072 2 0 -1170z"/>
<path d="M17967 2163 c-146 -307 -398 -836 -560 -1176 l-295 -617 307 0 307 0
113 244 c62 135 119 253 126 263 12 17 39 18 360 20 l347 2 55 26 c72 36 129
108 204 261 32 66 59 123 59 126 0 2 -180 5 -400 5 -220 0 -402 2 -405 5 -3 2
78 191 179 419 237 537 248 559 255 559 3 0 202 -433 442 -963 l436 -962 326
-3 c180 -1 327 0 327 3 0 3 -162 348 -361 767 -198 420 -447 946 -551 1171
l-191 407 -407 0 -407 0 -266 -557z"/>
<path d="M23390 1545 l0 -1175 305 0 305 0 0 960 0 960 328 0 c364 -1 561 -11
639 -35 122 -37 194 -117 214 -241 10 -65 9 -79 -9 -141 -53 -172 -180 -234
-507 -247 -237 -10 -262 -14 -300 -48 -19 -16 -55 -61 -81 -101 -48 -73 -136
-248 -129 -256 3 -2 130 -4 282 -5 153 -1 283 -4 288 -8 6 -3 132 -193 280
-422 l270 -415 339 -1 338 0 -18 27 c-10 16 -88 136 -173 268 -84 132 -218
339 -296 460 -78 121 -145 225 -149 232 -4 8 26 28 93 61 202 101 285 170 340
286 51 107 65 169 65 296 1 126 -13 186 -68 305 -113 242 -341 365 -745 405
-59 6 -423 10 -857 10 l-754 0 0 -1175z"/>
<path d="M26370 1545 l0 -1175 310 0 310 0 0 1175 0 1175 -310 0 -310 0 0
-1175z"/>
<path d="M33350 1545 l0 -1175 901 2 902 3 84 185 c45 101 86 193 89 202 5 17
-30 18 -673 20 l-678 3 -3 968 -2 967 -310 0 -310 0 0 -1175z"/>
<path d="M35610 2712 c-7 -3 -10 -400 -10 -1173 l0 -1169 1096 2 1095 3 89
200 88 200 -884 3 -884 2 0 765 0 765 843 2 844 3 -70 202 -70 201 -1063 -1
c-585 -1 -1068 -3 -1074 -5z"/>
<path d="M36567 1799 c-100 -24 -125 -52 -306 -352 l-23 -38 498 3 c555 3 531
0 621 74 37 31 201 261 219 309 5 13 -53 15 -482 14 -269 -1 -506 -5 -527 -10z"/>
<path d="M7238 1766 c-87 -24 -106 -43 -234 -252 -41 -66 -74 -125 -74 -130 0
-11 796 -10 920 0 146 13 205 58 332 256 41 63 78 121 82 128 11 18 -958 16
-1026 -2z"/>
</g>
</svg>
