<svg width="28" height="28" viewBox="0 0 28 28" fill="none" xmlns="http://www.w3.org/2000/svg">
<path d="M8.16634 7.00034V2.33334C8.16634 1.68901 8.689 1.16635 9.33333 1.16635C9.97766 1.16635 10.5003 1.68901 10.5003 2.33334V7.00034C10.5001 7.64452 9.97755 8.16635 9.33333 8.16635C8.6891 8.16635 8.16651 7.64452 8.16634 7.00034Z" fill="white"/>
<path d="M17.4997 7.00034V2.33334C17.4997 1.68901 18.0223 1.16635 18.6667 1.16635C19.311 1.16635 19.8337 1.68901 19.8337 2.33334V7.00034C19.8335 7.64452 19.3109 8.16635 18.6667 8.16635C18.0224 8.16635 17.4999 7.64452 17.4997 7.00034Z" fill="white"/>
<path d="M23.333 6.99966C23.3328 6.35559 22.8111 5.83382 22.167 5.83365H5.83301C5.18893 5.83382 4.66717 6.35559 4.66699 6.99966V23.3336C4.66717 23.9777 5.18893 24.4995 5.83301 24.4997H22.167C22.8111 24.4995 23.3328 23.9777 23.333 23.3336V6.99966ZM25.667 23.3336C25.6668 25.2664 24.0997 26.8335 22.167 26.8336H5.83301C3.90027 26.8335 2.33318 25.2664 2.33301 23.3336V6.99966C2.33318 5.06693 3.90027 3.49984 5.83301 3.49966H22.167C24.0997 3.49984 25.6668 5.06693 25.667 6.99966V23.3336Z" fill="white"/>
<path d="M24.5 10.4997C25.1443 10.4997 25.667 11.0223 25.667 11.6667C25.667 12.311 25.1443 12.8336 24.5 12.8336H3.5C2.85567 12.8336 2.33301 12.311 2.33301 11.6667C2.33301 11.0223 2.85567 10.4997 3.5 10.4997H24.5Z" fill="white"/>
</svg>
