<?xml version="1.0" standalone="no"?>
<!DOCTYPE svg PUBLIC "-//W3C//DTD SVG 20010904//EN"
 "http://www.w3.org/TR/2001/REC-SVG-20010904/DTD/svg10.dtd">
<svg version="1.0" xmlns="http://www.w3.org/2000/svg"
 width="3258.000000pt" height="1463.000000pt" viewBox="0 0 3258.000000 1463.000000"
 preserveAspectRatio="xMidYMid meet">

<g transform="translate(0.000000,1463.000000) scale(0.100000,-0.100000)"
fill="#000000" stroke="none">
<path d="M1850 12337 l0 -864 178 -6 c1157 -40 2272 -590 3027 -1492 208 -248
374 -500 526 -800 225 -446 362 -898 425 -1415 26 -206 26 -724 1 -930 -122
-990 -538 -1839 -1235 -2521 -315 -309 -666 -561 -1049 -753 -545 -273 -1083
-409 -1745 -442 l-128 -6 0 -859 0 -859 78 0 c303 0 778 52 1116 121 1924 393
3540 1739 4283 3569 76 187 193 544 242 735 108 428 163 811 180 1252 64 1653
-553 3227 -1724 4398 -717 718 -1587 1231 -2552 1505 -480 137 -905 201 -1485
225 l-138 6 0 -864z"/>
<path d="M21373 9573 l3 -2468 21 -133 c89 -540 324 -1004 699 -1378 362 -361
813 -594 1325 -684 157 -28 504 -38 671 -21 795 85 1495 547 1893 1251 105
186 201 437 249 651 45 205 51 270 51 554 0 238 -3 285 -23 398 -120 669 -468
1221 -1017 1612 -302 216 -667 360 -1065 422 -160 25 -538 24 -698 -1 -199
-31 -434 -96 -594 -165 l-48 -20 0 1224 0 1225 -735 0 -735 0 3 -2467z m2657
-1268 c374 -79 658 -352 762 -733 32 -116 32 -354 0 -472 -80 -295 -259 -514
-527 -645 -132 -65 -242 -94 -390 -102 -517 -27 -971 368 -1024 889 -66 655
537 1198 1179 1063z"/>
<path d="M14943 8553 c3 -1206 5 -1349 21 -1453 70 -469 241 -866 523 -1215
97 -120 296 -316 413 -407 608 -470 1404 -628 2158 -427 799 212 1463 866
1697 1671 39 132 70 289 85 423 6 55 10 601 10 1418 l0 1327 -725 0 -725 0 0
-1242 c0 -780 -4 -1277 -10 -1333 -40 -346 -242 -634 -555 -785 -155 -76 -239
-94 -425 -94 -127 0 -171 4 -244 22 -354 89 -631 370 -725 737 -38 147 -41
262 -41 1498 l0 1197 -730 0 -731 0 4 -1337z"/>
<path d="M11100 9839 c-587 -56 -1128 -318 -1540 -745 -550 -570 -789 -1361
-649 -2147 163 -920 860 -1684 1761 -1931 247 -68 351 -81 653 -81 294 0 372
8 603 65 174 43 309 92 487 179 754 369 1264 1091 1361 1927 22 185 15 507
-15 679 -117 686 -497 1272 -1076 1660 -122 81 -373 208 -514 258 -335 121
-722 170 -1071 136z m412 -1479 c328 -62 619 -303 738 -613 52 -133 64 -199
64 -357 0 -175 -21 -273 -89 -418 -104 -219 -258 -373 -476 -477 -153 -72
-237 -90 -419 -89 -160 0 -212 8 -338 55 -314 115 -556 395 -627 724 -21 96
-24 294 -6 380 43 206 135 380 276 520 163 164 351 253 610 289 43 6 205 -3
267 -14z"/>
<path d="M28509 9805 c-336 -53 -621 -192 -857 -419 -296 -285 -458 -620 -494
-1023 -54 -611 325 -1199 977 -1519 288 -142 575 -204 940 -204 100 0 116 -2
145 -22 58 -40 75 -72 75 -143 0 -69 -15 -99 -69 -139 -27 -21 -36 -21 -897
-24 l-869 -2 0 -710 0 -711 948 3 c938 3 948 4 1045 26 326 74 575 209 803
436 293 294 446 643 461 1057 6 175 -5 293 -43 451 -146 603 -652 1072 -1271
1178 -95 17 -162 20 -386 20 -159 0 -288 4 -310 11 -52 14 -102 61 -123 114
-28 73 2 149 77 194 34 21 42 21 862 21 l827 0 0 710 0 710 -877 -1 c-679 -1
-897 -4 -964 -14z"/>
<path d="M1850 9018 l0 -736 78 -7 c242 -22 452 -121 622 -294 133 -133 216
-283 262 -468 32 -131 30 -322 -6 -458 -50 -193 -168 -384 -310 -505 -167
-143 -409 -240 -598 -240 l-48 0 0 -735 0 -735 78 0 c242 0 582 71 844 176
824 330 1402 1087 1519 1989 18 137 15 457 -5 605 -77 570 -326 1060 -739
1456 -264 254 -574 442 -912 553 -229 75 -415 110 -677 127 l-108 7 0 -735z"/>
<path d="M19365 3523 c-44 -75 -81 -141 -83 -145 -2 -4 25 -8 60 -8 l63 1 105
115 c58 64 115 129 128 145 l23 29 -108 0 -108 0 -80 -137z"/>
<path d="M14930 2895 l0 -725 85 0 85 0 0 725 0 725 -85 0 -85 0 0 -725z"/>
<path d="M17440 2896 l0 -726 315 0 c355 0 421 8 540 64 147 69 239 176 294
342 72 215 66 529 -14 709 -48 109 -160 222 -265 267 -133 57 -162 61 -527 65
l-343 5 0 -726z m662 553 c232 -48 348 -231 348 -545 0 -302 -112 -488 -335
-556 -61 -19 -95 -22 -275 -22 l-205 -1 -3 568 -2 567 209 0 c116 0 234 -5
263 -11z"/>
<path d="M23630 3380 l0 -160 -90 0 -90 0 0 -75 0 -75 89 0 90 0 3 -387 c3
-365 4 -390 23 -427 37 -72 58 -81 216 -84 l139 -4 0 70 0 69 -78 6 c-95 7
-111 13 -123 44 -5 13 -9 179 -9 369 l0 344 105 0 105 0 0 75 0 75 -105 0
-105 0 0 160 0 160 -85 0 -85 0 0 -160z"/>
<path d="M29970 3380 l0 -160 -90 0 -90 0 0 -75 0 -75 89 0 90 0 3 -387 c3
-369 4 -390 24 -428 34 -67 83 -85 231 -85 l123 0 0 69 0 68 -82 6 c-132 11
-122 -19 -126 402 l-3 355 106 0 105 0 0 75 0 75 -105 0 -105 0 0 160 0 160
-85 0 -85 0 0 -160z"/>
<path d="M15800 3224 c-68 -18 -131 -55 -192 -112 -63 -59 -105 -126 -136
-220 -21 -64 -25 -96 -25 -192 -1 -296 135 -495 372 -546 180 -38 349 3 457
111 57 56 84 102 107 183 l16 52 -83 0 -83 0 -18 -47 c-42 -110 -149 -170
-289 -161 -173 12 -282 118 -303 295 l-6 53 397 0 396 0 0 73 c0 149 -61 308
-156 403 -86 87 -182 124 -319 123 -44 0 -105 -7 -135 -15z m233 -150 c95 -32
197 -162 197 -251 l0 -33 -305 0 -306 0 7 38 c8 51 45 130 78 169 15 17 54 46
88 62 50 25 74 31 128 31 36 0 87 -7 113 -16z"/>
<path d="M19283 3225 c-113 -31 -204 -101 -275 -209 -166 -256 -82 -685 160
-814 163 -87 396 -79 536 17 78 54 149 162 163 248 l6 34 -83 -3 -83 -3 -14
-39 c-20 -59 -59 -103 -116 -134 -46 -24 -63 -27 -147 -27 -116 0 -178 24
-241 92 -51 56 -77 114 -85 192 l-7 61 398 0 398 0 -6 93 c-14 231 -126 412
-294 478 -74 29 -233 36 -310 14z m253 -164 c36 -17 75 -45 97 -71 38 -45 77
-133 77 -175 l0 -25 -306 0 -306 0 6 38 c11 62 64 159 108 196 53 46 107 64
193 65 57 1 81 -4 131 -28z"/>
<path d="M20585 3225 c-27 -8 -53 -14 -56 -15 -19 -1 -104 -68 -125 -99 l-24
-36 0 73 0 72 -85 0 -85 0 0 -730 0 -730 85 0 85 0 0 271 0 271 44 -45 c52
-54 104 -82 188 -102 113 -26 245 -12 340 36 57 29 150 124 180 185 55 108 63
149 63 309 0 128 -3 161 -23 222 -43 138 -148 257 -269 303 -75 29 -243 37
-318 15z m252 -163 c122 -63 183 -187 183 -372 0 -263 -129 -413 -341 -398
-204 15 -321 183 -306 438 10 174 87 299 214 346 58 22 197 13 250 -14z"/>
<path d="M21810 3226 c-151 -34 -241 -114 -275 -242 -25 -97 -27 -94 69 -94
l84 0 7 40 c9 55 43 100 95 130 41 23 56 25 165 25 103 0 125 -3 155 -21 52
-30 80 -78 80 -136 0 -104 -29 -119 -310 -163 -274 -43 -383 -124 -397 -294
-11 -131 32 -225 128 -280 99 -56 265 -66 392 -22 64 22 104 47 158 98 l36 35
8 -38 c4 -21 13 -50 20 -65 27 -52 120 -73 206 -47 l39 11 0 69 0 68 -38 -6
c-67 -11 -66 -16 -72 390 l-5 362 -25 48 c-33 65 -98 110 -189 130 -83 19
-252 20 -331 2z m365 -762 c-21 -56 -77 -111 -144 -143 -75 -34 -223 -37 -286
-6 -113 57 -114 214 -1 280 44 26 102 40 289 69 54 9 110 22 125 30 l27 14 3
-101 c2 -75 -1 -113 -13 -143z"/>
<path d="M23153 3221 c-91 -31 -150 -82 -214 -186 l-24 -40 -3 113 -3 112 -79
0 -80 0 0 -525 0 -525 84 0 84 0 4 298 c4 278 6 301 27 362 51 144 137 211
294 227 l57 6 0 88 0 89 -47 0 c-27 -1 -71 -9 -100 -19z"/>
<path d="M24639 3226 c-122 -35 -238 -129 -296 -241 -114 -219 -75 -553 85
-712 88 -88 207 -133 352 -133 208 0 361 101 429 283 11 32 21 62 21 67 0 6
-36 10 -82 10 l-83 0 -24 -56 c-43 -99 -136 -154 -261 -154 -183 0 -298 107
-325 303 l-7 47 401 0 c375 0 401 1 401 18 0 63 -24 199 -45 261 -46 138 -124
228 -243 284 -58 27 -78 31 -171 34 -67 1 -123 -2 -152 -11z m235 -157 c94
-35 175 -142 188 -249 l3 -25 -299 -3 c-165 -1 -303 1 -307 5 -13 15 22 118
59 173 52 77 136 120 232 120 45 0 88 -7 124 -21z"/>
<path d="M25939 3227 c-65 -18 -128 -58 -177 -111 -23 -25 -45 -46 -47 -46 -3
0 -5 34 -5 75 l0 75 -80 0 -80 0 0 -525 0 -525 84 0 85 0 3 353 3 352 36 65
c61 111 142 155 269 148 78 -4 119 -29 153 -91 22 -41 22 -51 25 -434 l3 -393
85 0 84 0 0 354 c0 382 2 403 56 473 13 18 46 45 71 60 39 22 61 28 132 31 76
3 91 1 130 -20 29 -16 52 -38 65 -63 20 -38 21 -57 24 -437 l3 -398 84 0 85 0
0 418 c0 266 -4 431 -11 457 -36 134 -163 203 -355 193 -115 -6 -183 -35 -258
-111 l-54 -54 -34 51 c-50 76 -121 109 -241 113 -54 2 -111 -3 -138 -10z"/>
<path d="M27730 3226 c-168 -47 -298 -186 -345 -371 -8 -33 -15 -101 -15 -155
1 -349 191 -561 504 -560 223 1 390 127 442 335 l6 25 -84 0 -85 0 -12 -41
c-7 -23 -32 -61 -59 -89 -60 -62 -131 -85 -238 -77 -170 13 -277 119 -297 295
l-6 52 401 0 401 0 -7 79 c-8 102 -38 219 -73 284 -58 108 -175 201 -285 227
-59 13 -193 11 -248 -4z m257 -164 c84 -44 150 -136 167 -234 l7 -38 -307 0
-307 0 6 45 c16 110 100 211 207 246 47 16 182 4 227 -19z"/>
<path d="M29037 3230 c-77 -20 -149 -69 -192 -130 -15 -22 -32 -40 -36 -40 -5
0 -9 36 -9 80 l0 80 -75 0 -75 0 0 -525 0 -525 80 0 80 0 0 298 c0 163 5 326
10 361 28 170 136 261 310 261 89 0 144 -28 185 -95 l30 -48 3 -389 3 -388 85
0 84 0 0 363 c0 203 -5 390 -11 426 -21 129 -75 208 -174 252 -39 18 -73 23
-155 25 -58 2 -122 -1 -143 -6z"/>
</g>
</svg>
