<svg width="48" height="48" viewBox="0 0 48 48" fill="none" xmlns="http://www.w3.org/2000/svg">
<path d="M0 24C0 10.7452 10.7452 0 24 0C37.2548 0 48 10.7452 48 24C48 37.2548 37.2548 48 24 48C10.7452 48 0 37.2548 0 24Z" fill="#C8D97E"/>
<path d="M32.0003 22C32.0003 19.2094 31.4411 17.3698 30.7395 15.7812C30.0041 16.4971 29.2149 17.0401 28.1839 17.4853C26.7291 18.1134 24.8194 18.5359 21.9895 19.082C21.9825 19.0834 21.9751 19.0847 21.968 19.0859C20.4846 19.3394 19.1508 20.1411 18.2307 21.332C17.3107 22.523 16.8719 24.0162 17.0012 25.5156C17.1307 27.0151 17.8184 28.4119 18.929 29.4277C20.0396 30.4435 21.4922 31.0045 22.9973 31H23.0003L23.4378 30.9883C27.9511 30.745 32.0003 26.7758 32.0003 22ZM34.0003 22C34.0003 28.0694 28.7555 32.9977 23.0022 32.999H23.0012L23.0003 33V32.999C20.9945 33.0044 19.0595 32.2571 17.5794 30.9033C16.0987 29.549 15.1807 27.6876 15.0081 25.6885C14.8355 23.6891 15.4209 21.6975 16.6477 20.1094C17.8702 18.5269 19.6409 17.4601 21.6106 17.1182L22.6331 16.918C24.8959 16.4655 26.3232 16.1104 27.3909 15.6494C28.5417 15.1525 29.2945 14.522 30.2219 13.3721L30.3069 13.2793C30.5185 13.0757 30.8115 12.9739 31.1077 13.0058C31.4459 13.0425 31.7427 13.2484 31.8948 13.5527C32.9268 15.6167 34.0003 17.9585 34.0003 22Z" fill="#6B8E23"/>
<path d="M13 33C13 29.5148 15.1952 26.7508 18.8857 26.0195C19.9728 25.8039 21.108 25.3458 22.0996 24.8135C23.0989 24.277 23.8844 23.7015 24.293 23.293C24.6835 22.9024 25.3165 22.9024 25.707 23.293C26.0976 23.6835 26.0976 24.3165 25.707 24.707C25.1157 25.2984 24.1513 25.9827 23.0459 26.5762C22.0717 27.0991 20.9352 27.58 19.7734 27.8691L19.2744 27.9805C16.5049 28.5292 15 30.4852 15 33C15 33.5523 14.5523 34 14 34C13.4477 34 13 33.5523 13 33Z" fill="#6B8E23"/>
</svg>
