<?xml version="1.0" standalone="no"?>
<!DOCTYPE svg PUBLIC "-//W3C//DTD SVG 20010904//EN"
 "http://www.w3.org/TR/2001/REC-SVG-20010904/DTD/svg10.dtd">
<svg version="1.0" xmlns="http://www.w3.org/2000/svg"
 width="600.000000pt" height="124.000000pt" viewBox="0 0 600.000000 124.000000"
 preserveAspectRatio="xMidYMid meet">

<g transform="translate(0.000000,124.000000) scale(0.100000,-0.100000)"
fill="#000000" stroke="none">
<path d="M80 715 l0 -355 144 0 145 0 3 -52 3 -53 148 0 c88 0 151 4 155 10 3
6 9 28 12 50 l5 40 53 3 c46 3 57 0 77 -22 30 -32 117 -59 151 -46 30 12 48 4
40 -16 -10 -25 5 -43 40 -50 38 -7 64 8 62 34 -1 10 0 36 0 60 l2 42 305 0
305 0 1 -22 c1 -13 2 -63 4 -113 1 -50 3 -96 3 -102 3 -18 86 -17 101 1 9 11
9 20 2 35 -6 11 -14 61 -18 110 l-6 91 187 0 c180 0 186 -1 186 -20 0 -30 44
-111 77 -142 33 -32 131 -51 191 -37 55 12 108 71 124 138 l14 56 51 3 51 3
12 -57 c17 -80 49 -108 137 -124 67 -12 71 -12 109 12 54 35 70 55 89 116 16
49 19 52 51 52 28 0 34 -4 34 -20 0 -29 23 -70 55 -100 20 -19 37 -25 73 -25
26 0 53 3 61 5 10 3 15 -3 15 -20 1 -18 7 -26 25 -28 38 -6 45 11 42 103 l-3
86 89 -3 88 -3 2 -55 c1 -30 5 -74 8 -98 l6 -43 57 3 57 3 -2 98 -1 97 155 0
154 0 -1 -52 c-1 -29 -1 -77 -1 -105 l1 -53 64 0 c36 0 68 5 71 10 4 6 6 53 6
105 l-1 95 35 0 c30 0 37 -5 49 -32 7 -18 32 -51 54 -74 69 -71 162 -80 270
-27 59 30 103 86 83 106 -8 8 -16 8 -25 2 -7 -6 -32 -25 -56 -42 -49 -38 -105
-43 -178 -18 -41 15 -102 60 -102 77 0 4 110 8 244 8 l243 0 2 -77 c1 -42 4
-79 7 -82 8 -9 57 -12 81 -6 22 5 23 10 23 85 l0 80 59 0 c57 0 59 -1 85 -40
14 -22 26 -42 26 -45 0 -16 55 -75 69 -75 10 0 30 13 46 30 l29 30 -26 27
c-14 16 -31 38 -37 50 -12 23 -11 23 62 23 l74 0 6 -86 c3 -48 8 -89 11 -91 3
-3 78 -1 168 3 l162 9 8 39 c12 59 -1 68 -84 55 -36 -6 -86 -9 -109 -7 -43 3
-44 4 -47 41 l-3 37 250 0 251 0 0 355 0 355 -2900 0 -2900 0 0 -355z m4423
218 c-7 -2 -21 -2 -30 0 -10 3 -4 5 12 5 17 0 24 -2 18 -5z m-3996 -29 c-3 -3
-12 -4 -19 -1 -8 3 -5 6 6 6 11 1 17 -2 13 -5z m3680 -26 c-3 -8 -6 -5 -6 6
-1 11 2 17 5 13 3 -3 4 -12 1 -19z m-3790 -40 c-3 -7 -5 -2 -5 12 0 14 2 19 5
13 2 -7 2 -19 0 -25z m4121 -5 c-10 -2 -28 -2 -40 0 -13 2 -5 4 17 4 22 1 32
-1 23 -4z m-4121 -90 c-3 -10 -5 -4 -5 12 0 17 2 24 5 18 2 -7 2 -21 0 -30z
m2380 21 c-3 -3 -12 -4 -19 -1 -8 3 -5 6 6 6 11 1 17 -2 13 -5z m-1720 -20
c-3 -3 -12 -4 -19 -1 -8 3 -5 6 6 6 11 1 17 -2 13 -5z m3370 -10 c-3 -3 -12
-4 -19 -1 -8 3 -5 6 6 6 11 1 17 -2 13 -5z m590 -10 c-3 -3 -12 -4 -19 -1 -8
3 -5 6 6 6 11 1 17 -2 13 -5z m-1180 -20 c-3 -3 -12 -4 -19 -1 -8 3 -5 6 6 6
11 1 17 -2 13 -5z m1686 -21 c-7 -2 -19 -2 -25 0 -7 3 -2 5 12 5 14 0 19 -2
13 -5z m-1041 -22 c41 -17 98 -71 98 -92 0 -5 -15 -10 -32 -10 -67 -2 -105 -5
-175 -13 -66 -8 -73 -7 -73 9 0 41 55 97 115 117 11 3 21 6 22 7 1 1 21 -7 45
-18z m-3945 -23 c-3 -8 -6 -5 -6 6 -1 11 2 17 5 13 3 -3 4 -12 1 -19z m2550
-10 c-3 -7 -5 -2 -5 12 0 14 2 19 5 13 2 -7 2 -19 0 -25z m1680 -15 c-3 -10
-5 -2 -5 17 0 19 2 27 5 18 2 -10 2 -26 0 -35z m-4380 -15 c-2 -13 -4 -5 -4
17 -1 22 1 32 4 23 2 -10 2 -28 0 -40z m2470 20 c-3 -7 -5 -2 -5 12 0 14 2 19
5 13 2 -7 2 -19 0 -25z m2260 10 c-3 -8 -6 -5 -6 6 -1 11 2 17 5 13 3 -3 4
-12 1 -19z m-1550 -20 c-3 -7 -5 -2 -5 12 0 14 2 19 5 13 2 -7 2 -19 0 -25z
m-140 -10 c-3 -8 -6 -5 -6 6 -1 11 2 17 5 13 3 -3 4 -12 1 -19z m-2900 -30
c-3 -8 -6 -5 -6 6 -1 11 2 17 5 13 3 -3 4 -12 1 -19z m496 15 c2 -5 0 -52 -6
-105 l-9 -98 -53 0 c-50 0 -55 2 -75 35 -17 28 -20 43 -15 80 10 61 49 95 110
95 24 0 46 -3 48 -7z m2544 -15 c-3 -8 -6 -5 -6 6 -1 11 2 17 5 13 3 -3 4 -12
1 -19z m1320 -15 c-3 -10 -5 -4 -5 12 0 17 2 24 5 18 2 -7 2 -21 0 -30z m536
30 c-7 -2 -19 -2 -25 0 -7 3 -2 5 12 5 14 0 19 -2 13 -5z m-2736 -70 c-2 -16
-4 -5 -4 22 0 28 2 40 4 28 2 -13 2 -35 0 -50z m-860 0 c-3 -10 -5 -4 -5 12 0
17 2 24 5 18 2 -7 2 -21 0 -30z m126 10 c-7 -2 -21 -2 -30 0 -10 3 -4 5 12 5
17 0 24 -2 18 -5z m512 -14 c54 -25 70 -63 60 -143 -14 -106 -103 -162 -196
-123 -92 38 -90 208 3 265 43 26 78 27 133 1z m1532 -31 c-2 -13 -4 -5 -4 17
-1 22 1 32 4 23 2 -10 2 -28 0 -40z m-3230 -10 c-2 -13 -4 -5 -4 17 -1 22 1
32 4 23 2 -10 2 -28 0 -40z m2210 30 c-3 -8 -6 -5 -6 6 -1 11 2 17 5 13 3 -3
4 -12 1 -19z m440 -45 c-2 -16 -4 -5 -4 22 0 28 2 40 4 28 2 -13 2 -35 0 -50z
m1184 34 c-10 -9 -11 -8 -5 6 3 10 9 15 12 12 3 -3 0 -11 -7 -18z m666 -69
c-2 -18 -4 -4 -4 32 0 36 2 50 4 33 2 -18 2 -48 0 -65z m210 60 c-3 -8 -6 -5
-6 6 -1 11 2 17 5 13 3 -3 4 -12 1 -19z m-1290 -10 c-3 -8 -6 -5 -6 6 -1 11 2
17 5 13 3 -3 4 -12 1 -19z m-3660 -20 c-3 -7 -5 -2 -5 12 0 14 2 19 5 13 2 -7
2 -19 0 -25z m3040 -5 c-3 -10 -5 -4 -5 12 0 17 2 24 5 18 2 -7 2 -21 0 -30z
m1900 -5 c-3 -8 -6 -5 -6 6 -1 11 2 17 5 13 3 -3 4 -12 1 -19z m-573 -13 c-4
-8 -8 -15 -10 -15 -2 0 -4 7 -4 15 0 8 4 15 10 15 5 0 7 -7 4 -15z m49 8 c-7
-2 -19 -2 -25 0 -7 3 -2 5 12 5 14 0 19 -2 13 -5z m-1621 -43 c0 -22 1 -45 2
-52 1 -7 -12 -19 -27 -28 -27 -14 -29 -14 -53 14 -42 47 -15 106 48 106 26 0
28 -3 30 -40z m1435 8 c-3 -7 -5 -2 -5 12 0 14 2 19 5 13 2 -7 2 -19 0 -25z
m-560 0 c-3 -8 -6 -5 -6 6 -1 11 2 17 5 13 3 -3 4 -12 1 -19z m-3060 -20 c-3
-8 -6 -5 -6 6 -1 11 2 17 5 13 3 -3 4 -12 1 -19z m1550 0 c-3 -8 -6 -5 -6 6
-1 11 2 17 5 13 3 -3 4 -12 1 -19z m204 5 c13 -16 12 -17 -3 -4 -17 13 -22 21
-14 21 2 0 10 -8 17 -17z m1266 -5 c-3 -8 -6 -5 -6 6 -1 11 2 17 5 13 3 -3 4
-12 1 -19z m730 0 c-3 -8 -6 -5 -6 6 -1 11 2 17 5 13 3 -3 4 -12 1 -19z"/>
<path d="M2351 444 c-28 -36 -27 -84 3 -119 25 -29 33 -28 74 8 15 14 22 32
22 56 -1 43 -17 67 -52 76 -20 5 -30 1 -47 -21z"/>
</g>
</svg>
