<?xml version="1.0" standalone="no"?>
<!DOCTYPE svg PUBLIC "-//W3C//DTD SVG 20010904//EN"
 "http://www.w3.org/TR/2001/REC-SVG-20010904/DTD/svg10.dtd">
<svg version="1.0" xmlns="http://www.w3.org/2000/svg"
 width="315.000000pt" height="166.000000pt" viewBox="0 0 315.000000 166.000000"
 preserveAspectRatio="xMidYMid meet">

<g transform="translate(0.000000,166.000000) scale(0.100000,-0.100000)"
fill="#000000" stroke="none">
<path d="M2034 1280 c0 -96 2 -136 3 -87 2 48 2 126 0 175 -1 48 -3 8 -3 -88z"/>
<path d="M1982 1385 c-43 -31 -153 -55 -272 -61 -134 -7 -140 -9 -140 -43 l0
-28 118 -7 c183 -10 214 -24 57 -25 -133 -1 -175 -7 -175 -22 0 -5 71 -9 158
-9 148 0 159 -1 185 -23 44 -35 58 -142 24 -188 -33 -43 -57 -49 -199 -49
l-138 0 -2 128 -2 127 -5 -117 c-3 -64 -9 -119 -13 -123 -16 -17 -28 11 -28
66 0 37 -4 59 -11 59 -8 0 -10 -23 -7 -71 l4 -71 -131 4 c-142 4 -168 12 -202
64 -22 35 -22 133 1 169 24 37 73 64 129 71 44 6 47 8 47 37 0 30 0 30 -45 24
-51 -7 -112 -35 -137 -64 -50 -55 -63 -175 -28 -248 36 -75 37 -75 397 -75
298 0 320 1 350 20 44 27 63 68 63 138 0 66 -19 99 -74 133 -49 30 -6 23 58
-9 l56 -29 0 124 c0 67 -1 123 -2 122 -2 0 -18 -11 -36 -24z"/>
<path d="M1410 1370 c0 -5 5 -10 10 -10 6 0 10 5 10 10 0 6 -4 10 -10 10 -5 0
-10 -4 -10 -10z"/>
<path d="M1470 1370 c0 -5 5 -10 10 -10 6 0 10 5 10 10 0 6 -4 10 -10 10 -5 0
-10 -4 -10 -10z"/>
<path d="M1525 1370 c3 -5 10 -10 16 -10 5 0 9 5 9 10 0 6 -7 10 -16 10 -8 0
-12 -4 -9 -10z"/>
<path d="M1400 1210 c0 -113 1 -120 20 -120 19 0 20 7 20 120 0 113 -1 120
-20 120 -19 0 -20 -7 -20 -120z"/>
<path d="M1460 1211 c0 -115 1 -121 20 -121 20 0 21 5 18 117 -3 103 -5 118
-20 121 -16 3 -18 -8 -18 -117z"/>
<path d="M1520 1211 c0 -115 1 -121 20 -121 20 0 21 5 18 117 -3 103 -5 118
-20 121 -16 3 -18 -8 -18 -117z"/>
<path d="M1372 1203 c-2 -22 -7 -23 -79 -25 l-78 -2 75 -5 75 -6 5 -60 c5 -55
7 -60 29 -60 13 0 27 7 29 15 5 13 3 13 -12 1 -26 -22 -35 -3 -39 84 -1 44 -4
70 -5 58z"/>
<path d="M1118 1173 c6 -2 18 -2 25 0 6 3 1 5 -13 5 -14 0 -19 -2 -12 -5z"/>
<path d="M582 774 c-31 -21 -29 -70 4 -105 l26 -27 -19 -56 -18 -57 -37 6
c-46 8 -78 -8 -78 -40 0 -50 70 -71 119 -36 l27 19 73 -60 c70 -59 75 -61 140
-66 61 -4 69 -2 98 22 22 18 30 32 26 46 -5 20 -6 20 -32 3 -18 -12 -45 -18
-91 -18 -61 0 -69 3 -137 48 l-73 49 20 38 c11 22 20 48 20 59 0 11 18 38 40
61 55 57 67 130 21 130 -23 0 -42 -22 -73 -83 -23 -46 -24 -47 -46 -31 -34 23
-31 79 6 98 15 8 22 15 17 16 -6 0 -21 -7 -33 -16z m138 -40 c-13 -34 -40 -72
-40 -57 0 18 33 83 42 83 4 0 3 -12 -2 -26z m-162 -219 c7 -7 -29 -45 -43 -45
-6 0 -20 6 -30 14 -17 12 -17 16 -5 31 10 12 22 15 44 11 16 -4 32 -8 34 -11z"/>
<path d="M1814 745 c-45 -23 -76 -85 -82 -166 -4 -62 -3 -69 21 -93 42 -41
113 -31 153 23 10 13 12 11 18 -7 10 -29 51 -39 75 -18 10 9 23 16 29 16 6 0
14 4 17 10 4 6 -1 7 -11 3 -11 -4 -15 -3 -11 4 10 16 -3 43 -19 43 -9 0 -13
-11 -11 -37 1 -29 -2 -38 -15 -41 -14 -3 -18 3 -18 27 0 33 30 71 55 71 22 0
18 17 -6 30 -27 15 -66 -10 -85 -55 -29 -70 -99 -97 -130 -50 -33 50 11 194
67 222 23 12 24 11 27 -17 2 -17 9 -30 17 -30 15 0 30 49 18 61 -18 17 -78 19
-109 4z"/>
<path d="M980 742 c-15 -5 -30 -21 -30 -34 0 -4 16 -4 36 -1 32 5 36 4 31 -13
-3 -10 -9 -31 -13 -46 -3 -16 -9 -28 -13 -28 -3 0 -6 -33 -6 -73 0 -57 3 -72
15 -72 8 0 16 9 18 20 1 11 8 39 14 63 10 39 13 42 47 44 l36 1 -33 4 c-33 4
-34 5 -27 41 4 20 9 40 11 43 2 4 40 5 84 2 57 -4 88 -2 105 7 34 18 32 32 -2
19 -33 -13 -135 -3 -172 15 -27 14 -75 18 -101 8z"/>
<path d="M2311 705 l-11 -45 -43 4 -42 5 38 -11 c43 -13 47 -31 18 -93 -19
-43 -62 -89 -47 -50 15 39 19 92 6 100 -19 12 -32 -10 -36 -63 -5 -63 12 -81
48 -52 23 17 27 18 38 5 16 -19 34 -19 50 0 11 14 14 13 24 -7 14 -27 51 -35
74 -16 9 7 27 19 40 26 18 10 22 10 22 -2 0 -8 5 -18 10 -21 21 -13 47 6 75
55 17 27 33 50 38 50 4 0 7 -14 7 -30 0 -24 -6 -33 -26 -40 -30 -12 -27 -34 6
-38 15 -3 31 5 47 22 29 32 43 33 43 3 0 -27 17 -47 41 -47 23 0 67 36 84 71
21 40 11 37 -15 -5 -23 -38 -56 -54 -73 -37 -8 8 -1 21 26 49 37 38 46 65 26
77 -21 13 -55 -6 -83 -48 l-30 -42 -9 35 c-5 19 -10 49 -10 65 -1 17 -6 36
-10 43 -14 21 -37 -6 -37 -42 0 -32 -51 -126 -68 -126 -5 0 -5 19 1 44 17 76
-13 108 -34 36 -7 -22 -20 -47 -31 -56 -17 -16 -18 -16 -18 9 0 18 -5 27 -15
27 -12 0 -15 -9 -13 -37 2 -29 -1 -38 -14 -41 -14 -3 -18 3 -18 25 0 33 25 73
46 73 19 0 18 26 -2 34 -23 9 -51 -10 -79 -54 -31 -48 -51 -63 -41 -29 3 13
11 45 17 71 6 28 15 45 22 43 7 -2 28 -6 47 -9 33 -5 34 -5 16 9 -11 8 -32 15
-46 15 -24 0 -26 3 -22 33 2 21 -2 38 -11 45 -12 10 -16 5 -26 -33z m459 -134
c-5 -11 -15 -23 -22 -27 -7 -5 -8 -2 -3 7 21 37 44 55 25 20z m-160 -65 c0 -3
-4 -8 -10 -11 -5 -3 -10 -1 -10 4 0 6 5 11 10 11 6 0 10 -2 10 -4z"/>
<path d="M1445 708 c-20 -18 -29 -41 -41 -103 -9 -44 -21 -86 -26 -92 -21 -26
-27 -12 -12 29 22 64 -2 104 -37 61 -12 -14 -12 -16 0 -8 11 6 13 4 6 -11 -4
-10 -10 -34 -13 -51 -5 -38 18 -54 49 -35 25 16 24 17 27 -28 3 -54 18 -90 36
-90 30 0 49 73 26 96 -8 8 -6 15 4 23 13 11 18 10 31 -3 19 -18 24 -19 45 -6
13 8 12 10 -2 10 -10 0 -18 3 -18 8 0 18 43 75 61 79 25 7 24 20 -1 28 -27 9
-57 -10 -76 -48 -19 -37 -44 -67 -56 -67 -17 0 -7 63 16 93 35 48 42 66 11 32
l-26 -30 6 44 c10 76 36 104 55 59 5 -13 9 -18 9 -11 3 46 -33 56 -74 21z m14
-285 c1 -7 -3 -13 -9 -13 -5 0 -10 15 -9 33 0 27 2 29 9 12 5 -11 9 -26 9 -32z"/>
<path d="M2533 694 c-8 -21 13 -42 28 -27 13 13 5 43 -11 43 -6 0 -13 -7 -17
-16z"/>
<path d="M1663 685 c-3 -9 -3 -18 0 -21 9 -9 27 6 27 22 0 19 -19 18 -27 -1z"/>
<path d="M1263 577 c-13 -36 -17 -60 -11 -71 14 -25 32 -19 44 17 6 17 14 39
18 48 4 9 -1 25 -12 39 l-18 23 -21 -56z"/>
<path d="M2086 622 c-20 -33 -34 -97 -25 -120 7 -19 13 -22 21 -14 17 17 48
102 37 102 -5 0 -9 6 -9 14 0 18 -16 30 -24 18z"/>
<path d="M730 607 c-50 -39 -67 -110 -30 -122 22 -7 51 10 49 29 0 7 -2 6 -6
-1 -7 -20 -23 -15 -23 6 0 24 37 71 57 71 21 0 10 25 -13 27 -10 2 -26 -3 -34
-10z"/>
<path d="M1130 591 c-35 -34 -47 -75 -30 -96 16 -19 29 -19 52 1 16 16 18 16
24 0 8 -21 38 -21 55 2 11 14 11 15 -1 5 -22 -20 -30 -15 -20 13 27 69 -7 89
-40 24 -20 -39 -40 -53 -40 -27 0 26 40 77 61 77 18 0 19 2 9 15 -18 22 -38
18 -70 -14z"/>
<path d="M2144 608 c-4 -6 -9 -31 -11 -55 -3 -33 0 -45 12 -49 21 -8 26 -2 27
35 1 18 5 34 9 37 9 5 -11 44 -23 44 -4 0 -10 -5 -14 -12z"/>
<path d="M762 555 c-11 -25 -8 -48 11 -72 11 -15 42 -1 51 24 6 15 4 14 -15
-3 -21 -19 -22 -19 -16 1 20 66 20 75 0 75 -11 0 -25 -11 -31 -25z"/>
<path d="M1567 544 c-10 -19 -13 -33 -7 -29 5 3 10 0 10 -8 0 -8 6 -20 13 -26
15 -12 41 11 71 64 17 30 17 30 -1 6 -10 -14 -26 -34 -36 -45 -18 -21 -18 -21
-12 9 3 17 8 38 11 48 10 34 -31 19 -49 -19z"/>
<path d="M840 550 c-6 -11 -8 -20 -6 -20 3 0 10 9 16 20 6 11 8 20 6 20 -3 0
-10 -9 -16 -20z"/>
</g>
</svg>
