<?xml version="1.0" standalone="no"?>
<!DOCTYPE svg PUBLIC "-//W3C//DTD SVG 20010904//EN"
 "http://www.w3.org/TR/2001/REC-SVG-20010904/DTD/svg10.dtd">
<svg version="1.0" xmlns="http://www.w3.org/2000/svg"
 width="1920.000000pt" height="682.000000pt" viewBox="0 0 1920.000000 682.000000"
 preserveAspectRatio="xMidYMid meet">

<g transform="translate(0.000000,682.000000) scale(0.100000,-0.100000)"
fill="#000000" stroke="none">
<path d="M175 6786 c-59 -27 -107 -72 -138 -130 l-22 -41 0 -3205 0 -3205 22
-41 c31 -58 79 -103 138 -130 l50 -24 9375 0 9375 0 50 24 c59 27 107 72 138
130 l22 41 0 3205 0 3205 -22 41 c-31 58 -79 103 -138 130 l-50 24 -9375 0
-9375 0 -50 -24z m4255 -3170 l0 -2664 -77 -6 c-85 -8 -471 -45 -788 -76 -110
-11 -204 -20 -208 -20 -4 0 -7 518 -7 1150 l0 1151 -77 -7 c-43 -4 -80 -8 -82
-10 -3 -3 -24 -143 -48 -312 -24 -169 -66 -464 -93 -657 -147 -1042 -192
-1360 -193 -1362 -4 -3 -650 -63 -652 -61 -1 2 -39 263 -84 580 -45 318 -115
808 -156 1090 -41 282 -77 532 -80 555 l-6 43 -77 -7 c-42 -3 -80 -11 -84 -17
-4 -6 -8 -525 -8 -1153 l0 -1143 -20 0 c-12 0 -110 -9 -218 -20 -108 -10 -318
-31 -467 -45 -148 -14 -291 -28 -317 -31 l-48 -6 0 1756 0 1755 32 5 c18 3
182 19 363 36 182 17 447 42 590 56 143 14 368 35 500 48 132 13 242 22 244
20 3 -3 79 -809 81 -851 0 -8 10 -11 28 -8 15 2 53 7 85 10 57 6 57 7 57 40 0
18 16 206 35 417 18 210 53 590 75 843 108 1201 128 1407 136 1414 5 5 113 18
239 30 254 23 897 85 1100 105 72 8 151 14 178 15 l47 1 0 -2664z m4380 509
l0 -2155 33 0 c17 0 122 9 232 20 110 10 297 28 415 39 118 11 236 23 263 26
l47 6 0 -505 0 -506 -22 -4 c-13 -3 -126 -14 -253 -26 -255 -23 -991 -93
-1474 -140 -172 -16 -315 -30 -317 -30 -2 0 -4 1199 -4 2664 l0 2664 43 6 c23
3 211 22 417 42 206 19 409 39 450 43 41 5 96 9 123 10 l47 1 0 -2155z m6322
2140 c173 -36 306 -144 391 -315 57 -117 90 -230 119 -408 20 -130 22 -175 25
-893 l4 -756 -78 -7 c-100 -9 -665 -62 -848 -81 -76 -7 -143 -11 -147 -9 -4 3
-8 329 -8 725 0 678 -1 719 -17 719 -10 0 -110 -9 -223 -20 -113 -11 -215 -20
-227 -20 l-23 0 0 -1656 0 -1657 53 6 c28 3 139 14 245 23 l192 18 0 673 0
673 23 9 c12 4 130 18 262 30 132 13 350 34 485 47 134 13 259 24 277 24 l33
0 0 -624 c0 -342 -5 -681 -10 -752 -39 -481 -164 -772 -401 -930 -135 -90
-255 -123 -539 -149 -91 -8 -326 -31 -524 -50 -398 -39 -523 -43 -629 -19
-243 54 -404 238 -477 547 -35 146 -50 275 -61 517 -15 324 -6 3108 10 3240
68 557 217 819 541 951 121 49 138 51 965 129 116 11 224 21 240 23 80 10 286
5 347 -8z m-12812 -374 l0 -189 -37 -6 c-21 -3 -96 -10 -168 -16 -193 -16
-175 -6 -175 -104 0 -45 2 -85 5 -87 2 -3 62 1 132 7 70 7 140 13 156 13 l27
1 0 -184 c0 -122 -4 -187 -11 -192 -6 -3 -73 -12 -150 -19 -76 -8 -143 -16
-149 -20 -5 -3 -10 -44 -10 -91 l0 -84 33 0 c17 0 93 7 167 15 74 8 152 15
173 15 l37 0 0 -188 0 -189 -132 -12 c-73 -7 -243 -23 -378 -37 -135 -13 -257
-24 -272 -24 l-28 0 0 755 0 755 23 1 c12 0 171 15 352 34 182 18 347 33 368
34 l37 1 0 -189z m-1270 -496 l0 -565 43 6 c131 16 313 30 320 24 4 -3 6 -89
5 -191 l-3 -184 -120 -12 c-66 -7 -221 -21 -345 -33 -124 -11 -244 -23 -267
-26 l-43 -6 0 755 0 756 33 5 c40 7 300 33 345 35 l32 1 0 -565z m5813 480
c268 -56 435 -282 501 -675 35 -215 37 -326 34 -1990 -4 -1623 -4 -1636 -25
-1768 -38 -227 -90 -393 -165 -520 -18 -31 -71 -95 -118 -142 -154 -155 -293
-204 -680 -240 -124 -11 -367 -35 -540 -51 -375 -36 -525 -36 -630 1 -265 93
-400 318 -462 770 -19 141 -19 3428 0 3580 29 230 80 411 155 555 56 107 192
245 292 297 154 80 204 88 1055 168 118 11 229 21 245 23 81 10 276 5 338 -8z
m5289 0 c248 -52 409 -243 484 -574 60 -266 59 -233 59 -2006 0 -1484 -2
-1631 -18 -1753 -35 -271 -75 -420 -155 -577 -37 -72 -64 -108 -137 -181 -78
-78 -104 -98 -185 -137 -123 -59 -230 -82 -505 -107 -121 -12 -362 -35 -535
-51 -456 -45 -585 -36 -735 47 -180 101 -290 310 -347 665 -22 133 -22 144
-26 1744 -3 1673 -1 1790 38 2023 82 481 293 735 671 807 124 24 1064 113
1204 114 70 0 148 -5 187 -14z m5972 -5 c250 -64 407 -266 475 -610 45 -225
44 -202 48 -1850 3 -1040 1 -1619 -6 -1725 -38 -562 -182 -881 -467 -1027 -82
-42 -189 -78 -274 -92 -107 -17 -1104 -106 -1192 -106 -443 0 -655 294 -697
971 -14 215 -14 3004 -1 3228 35 575 183 895 483 1043 146 73 134 71 1062 162
312 31 466 33 569 6z"/>
<path d="M6055 4828 c-110 -10 -206 -21 -212 -23 -10 -3 -13 -344 -13 -1656
l0 -1651 83 7 c45 4 156 14 247 24 l165 16 3 1653 2 1652 -37 -1 c-21 -1 -128
-10 -238 -21z"/>
<path d="M11345 4828 c-110 -10 -206 -21 -212 -23 -10 -3 -13 -344 -13 -1656
l0 -1652 58 6 c31 3 144 14 250 23 l192 18 0 1653 0 1653 -37 -1 c-21 -1 -128
-10 -238 -21z"/>
<path d="M17430 4840 c-36 -4 -129 -13 -207 -20 l-143 -13 0 -1655 0 -1655 58
6 c31 4 141 14 245 24 l187 17 0 1653 0 1653 -37 -1 c-21 -1 -67 -5 -103 -9z"/>
</g>
</svg>
