<?xml version="1.0" standalone="no"?>
<!DOCTYPE svg PUBLIC "-//W3C//DTD SVG 20010904//EN"
 "http://www.w3.org/TR/2001/REC-SVG-20010904/DTD/svg10.dtd">
<svg version="1.0" xmlns="http://www.w3.org/2000/svg"
 width="427.000000pt" height="427.000000pt" viewBox="0 0 427.000000 427.000000"
 preserveAspectRatio="xMidYMid meet">

<g transform="translate(0.000000,427.000000) scale(0.100000,-0.100000)"
fill="#000000" stroke="none">
<path d="M956 2861 c-59 -89 -82 -118 -91 -111 -7 6 -46 58 -86 116 l-74 106
-5 -404 -5 -403 -29 -65 c-23 -51 -30 -85 -34 -156 -5 -96 4 -130 47 -168 19
-17 21 -30 21 -133 0 -94 3 -113 15 -113 12 0 15 19 15 109 l0 108 55 6 c237
24 551 390 582 678 13 125 -66 118 -249 -22 l-78 -59 0 74 0 75 73 53 c40 29
98 68 129 87 l55 34 6 81 c3 44 4 82 2 84 -4 4 -136 -109 -210 -180 l-50 -47
-5 186 -5 185 -79 -121z m64 -171 l0 -100 -85 -91 c-75 -80 -135 -154 -187
-229 -16 -24 -17 -12 -17 243 -1 147 1 267 4 267 2 0 32 -43 67 -95 34 -52 65
-95 68 -95 4 0 37 45 74 100 36 55 68 100 71 100 3 0 5 -45 5 -100z m0 -287
c0 -65 -1 -68 -42 -111 l-43 -45 40 27 40 26 3 -100 c1 -55 7 -100 12 -100 5
0 11 50 12 112 l3 112 90 58 c65 42 98 57 120 55 29 -2 30 -4 27 -42 -8 -100
-123 -318 -228 -433 -86 -94 -147 -126 -244 -127 l-75 0 -3 122 -3 122 37 73
c20 40 55 100 77 133 42 62 154 185 169 185 4 0 8 -30 8 -67z m-320 -470 c-1
-38 -3 -44 -11 -30 -9 16 -4 77 7 77 2 0 4 -21 4 -47z"/>
<path d="M2011 2726 c-16 -17 -19 -25 -9 -28 10 -4 14 -66 18 -294 l5 -288 25
-13 c20 -10 27 -9 42 4 73 66 71 433 -3 433 -10 0 -19 -4 -19 -8 0 -5 -7 -17
-14 -28 -13 -17 -15 -4 -13 114 1 72 -1 132 -4 132 -3 0 -16 -11 -28 -24z m91
-273 c6 -16 12 -84 12 -153 1 -108 -2 -130 -18 -155 l-19 -29 -17 22 c-15 18
-18 44 -19 148 -2 130 10 194 35 194 8 0 20 -12 26 -27z"/>
<path d="M2427 2743 c-4 -7 -16 -36 -26 -65 -11 -29 -22 -61 -26 -70 -4 -10
-3 -18 2 -18 19 0 64 99 61 133 -2 20 -6 27 -11 20z"/>
<path d="M2580 2728 c-16 -14 -21 -22 -12 -25 15 -6 18 -568 2 -578 -21 -13
-9 -25 26 -25 31 0 35 2 28 18 -5 9 -11 155 -14 324 l-5 306 -25 -20z"/>
<path d="M2837 2723 c-3 -15 -1 -38 5 -52 7 -21 11 -23 18 -11 17 26 9 90 -10
90 -4 0 -10 -12 -13 -27z"/>
<path d="M3590 2728 c-16 -14 -21 -22 -12 -25 8 -3 12 -32 12 -94 0 -87 0 -89
-21 -77 -45 28 -74 -60 -73 -232 0 -140 16 -200 53 -200 11 0 23 5 26 10 3 6
11 10 16 10 6 0 7 -4 4 -10 -12 -19 12 -10 34 13 19 21 20 25 6 37 -12 10 -15
57 -17 300 l-3 288 -25 -20z m-10 -237 c16 -31 13 -326 -4 -340 -34 -28 -61
84 -54 224 6 117 31 166 58 116z"/>
<path d="M1763 2580 c-12 -42 -18 -76 -12 -78 5 -2 9 -78 9 -177 0 -96 4 -185
10 -199 13 -35 36 -33 49 5 13 38 14 49 2 30 -23 -37 -31 5 -31 170 0 144 2
169 15 169 8 0 15 7 15 15 0 8 -7 15 -15 15 -10 0 -15 16 -17 62 l-3 62 -22
-74z"/>
<path d="M1432 2511 c-12 -17 -18 -31 -12 -31 6 0 10 -63 10 -180 0 -113 -4
-180 -10 -180 -5 0 -10 -4 -10 -10 0 -5 16 -10 36 -10 31 0 35 3 28 18 -5 9
-10 83 -12 164 -3 119 0 152 13 177 17 34 30 39 39 15 10 -27 7 -342 -4 -349
-21 -13 -9 -25 26 -25 31 0 35 3 28 18 -5 9 -11 101 -14 203 -4 136 -9 190
-19 202 -19 24 -29 21 -50 -14 l-20 -32 -3 33 -3 32 -23 -31z"/>
<path d="M2372 2527 c-37 -44 -54 -241 -31 -348 12 -55 40 -92 63 -83 17 7 56
104 55 137 -1 20 -1 20 -8 -4 -21 -67 -50 -88 -71 -50 -11 21 -30 171 -23 184
2 4 26 7 53 7 l49 0 -6 53 c-8 72 -28 117 -51 117 -11 0 -24 -6 -30 -13z m38
-43 c6 -14 10 -39 10 -55 0 -26 -3 -29 -30 -29 -27 0 -30 3 -30 29 0 37 16 81
30 81 6 0 15 -12 20 -26z"/>
<path d="M2841 2516 c-19 -20 -22 -29 -13 -38 15 -15 17 -344 2 -353 -21 -13
-9 -25 25 -25 35 0 43 8 25 26 -5 5 -11 97 -12 213 l-3 203 -24 -26z"/>
<path d="M3094 2504 c-16 -38 -16 -103 1 -107 6 -1 12 23 15 53 4 40 9 55 20
55 11 0 18 -17 24 -57 8 -53 7 -58 -18 -88 -56 -67 -76 -145 -56 -218 12 -48
32 -54 61 -19 15 18 18 19 19 5 0 -26 21 -33 37 -13 15 21 18 49 4 41 -17 -11
-21 26 -21 183 0 125 -3 161 -16 179 -23 34 -52 28 -70 -14z m66 -216 c0 -69
-15 -138 -31 -138 -18 0 -31 54 -24 100 7 45 33 100 47 100 4 0 8 -28 8 -62z"/>
<path d="M3360 2513 c-13 -28 -13 -28 -19 -5 l-6 23 -23 -22 c-19 -17 -21 -23
-10 -30 18 -12 19 -332 1 -351 -22 -21 -15 -28 27 -28 42 0 49 7 28 28 -18 18
-24 254 -8 312 10 36 14 41 21 27 17 -30 30 -18 27 25 -4 50 -20 59 -38 21z"/>
</g>
</svg>
