<?xml version="1.0" standalone="no"?>
<!DOCTYPE svg PUBLIC "-//W3C//DTD SVG 20010904//EN"
 "http://www.w3.org/TR/2001/REC-SVG-20010904/DTD/svg10.dtd">
<svg version="1.0" xmlns="http://www.w3.org/2000/svg"
 width="2744.000000pt" height="576.000000pt" viewBox="0 0 2744.000000 576.000000"
 preserveAspectRatio="xMidYMid meet">

<g transform="translate(0.000000,576.000000) scale(0.100000,-0.100000)"
fill="#000000" stroke="none">
<path d="M15640 5485 l0 -266 -47 32 c-170 117 -367 96 -519 -55 -102 -103
-154 -240 -154 -411 0 -106 22 -204 65 -292 46 -93 108 -156 193 -196 56 -26
82 -32 159 -35 108 -5 166 10 250 64 l53 34 0 -29 c0 -59 4 -61 106 -61 l94 0
0 740 0 740 -100 0 -100 0 0 -265z m-145 -355 c22 -9 64 -36 93 -59 l52 -41 0
-249 0 -249 -45 -36 c-169 -139 -365 -98 -435 89 -27 75 -37 216 -21 309 37
211 186 310 356 236z"/>
<path d="M12091 5315 c-85 -16 -180 -59 -236 -109 l-40 -35 62 -62 62 -62 36
31 c112 99 268 119 356 45 41 -35 57 -75 65 -161 l7 -69 -139 -7 c-216 -10
-306 -35 -399 -111 -89 -72 -128 -211 -91 -323 22 -64 84 -135 150 -170 46
-24 61 -27 157 -27 l106 0 99 50 c54 28 102 51 105 53 4 2 10 -18 13 -43 l7
-45 101 0 100 0 -4 383 c-5 420 -8 443 -68 525 -84 116 -267 172 -449 137z
m309 -680 l0 -105 -52 -41 c-69 -55 -145 -89 -210 -96 -100 -9 -178 59 -178
155 0 78 49 137 137 166 67 21 84 23 201 25 l102 1 0 -105z"/>
<path d="M13965 5317 c-82 -21 -142 -55 -190 -109 -97 -108 -99 -270 -6 -366
50 -52 102 -81 231 -132 200 -80 240 -110 240 -181 0 -145 -263 -171 -412 -40
l-36 31 -60 -67 -61 -68 27 -22 c56 -47 166 -94 257 -110 206 -35 382 33 452
175 22 46 27 69 27 127 -2 161 -93 249 -352 339 -117 41 -147 58 -168 97 -81
158 160 241 343 119 l42 -29 56 70 56 69 -48 30 c-100 64 -288 95 -398 67z"/>
<path d="M16365 5303 c-205 -74 -315 -254 -315 -517 0 -178 49 -315 144 -405
94 -88 187 -121 341 -121 153 0 263 36 353 117 l37 33 -65 59 -65 59 -30 -24
c-16 -14 -59 -39 -95 -57 -54 -27 -76 -32 -135 -32 -60 0 -78 4 -125 31 -30
17 -67 47 -82 65 -34 42 -65 127 -69 189 l-4 45 342 3 341 2 6 43 c4 23 2 77
-4 120 -27 189 -102 305 -240 371 -59 28 -76 31 -175 34 -86 2 -121 -2 -160
-15z m253 -159 c29 -14 64 -41 78 -60 27 -35 54 -111 54 -151 l0 -23 -240 0
c-275 0 -258 -8 -219 96 54 143 197 203 327 138z"/>
<path d="M10 2670 l0 -2640 720 0 720 0 0 2640 0 2640 -720 0 -720 0 0 -2640z"/>
<path d="M3423 5303 c3 -5 341 -636 752 -1403 411 -767 748 -1396 749 -1397 2
-2 1459 2694 1505 2785 l12 22 -1511 0 c-831 0 -1509 -3 -1507 -7z"/>
<path d="M8420 2670 l0 -2640 715 0 715 0 0 2640 0 2640 -715 0 -715 0 0
-2640z"/>
<path d="M10840 4790 l0 -520 100 0 100 0 0 199 0 199 208 4 c235 5 271 13
345 79 71 61 91 115 92 234 0 90 -3 106 -28 157 -44 90 -115 139 -228 158 -35
5 -182 10 -326 10 l-263 0 0 -520z m525 359 c81 -22 119 -81 113 -175 -3 -50
-9 -69 -28 -90 -51 -53 -72 -59 -245 -59 l-160 0 -3 168 -2 167 142 0 c79 0
161 -5 183 -11z"/>
<path d="M12867 4858 c90 -243 175 -466 189 -494 l25 -53 -26 -83 c-36 -117
-61 -158 -115 -186 -39 -21 -54 -23 -122 -18 l-78 5 0 -79 0 -79 38 -8 c53
-11 180 -8 228 5 58 17 104 51 139 102 21 31 100 250 248 682 119 350 217 639
217 642 0 3 -45 6 -100 6 l-99 0 -65 -202 c-35 -112 -89 -279 -118 -372 l-54
-170 -128 372 -129 372 -107 0 -107 0 164 -442z"/>
<path d="M20646 4105 l-290 -195 117 -117 116 -117 318 157 c175 86 319 161
321 165 1 4 -64 73 -145 154 l-148 147 -289 -194z"/>
<path d="M18100 3090 l0 -1170 234 0 235 0 5 43 c3 23 7 54 8 69 l3 28 45 -36
c25 -20 77 -52 115 -70 290 -139 638 -38 822 239 98 147 144 326 144 562 0
223 -39 378 -131 519 -52 79 -152 178 -223 220 -219 128 -480 119 -694 -23
l-73 -49 0 419 0 419 -245 0 -245 0 0 -1170z m868 125 c60 -8 112 -36 156 -86
78 -85 101 -184 93 -392 -8 -222 -52 -356 -144 -437 -100 -88 -250 -78 -409
29 l-69 46 -3 367 -2 367 44 31 c82 56 204 94 271 84 11 -1 40 -5 63 -9z"/>
<path d="M21580 3298 c1 -1043 2 -1063 54 -1167 110 -216 424 -294 763 -189
l41 13 -68 175 c-62 159 -71 175 -92 174 -13 -1 -53 -5 -90 -9 -81 -9 -112 5
-127 62 -7 25 -11 353 -11 971 l0 932 -235 0 -235 0 0 -962z"/>
<path d="M26950 3840 l0 -421 -47 36 c-106 81 -259 135 -383 135 -87 0 -188
-26 -280 -71 -68 -34 -102 -60 -176 -133 -155 -155 -224 -312 -243 -551 -16
-200 15 -395 88 -550 127 -267 339 -395 639 -383 137 6 208 29 323 103 39 25
73 44 76 41 3 -2 7 -32 10 -65 l6 -61 238 0 239 0 0 1170 0 1170 -245 0 -245
0 0 -420z m-235 -606 c65 -16 126 -47 192 -97 l42 -32 1 -370 0 -370 -53 -39
c-96 -71 -150 -91 -252 -91 -73 0 -98 4 -130 22 -90 48 -161 160 -190 299 -20
92 -19 285 1 382 22 109 55 172 120 231 84 77 158 95 269 65z"/>
<path d="M22520 3960 l0 -210 250 0 250 0 0 210 0 210 -250 0 -250 0 0 -210z"/>
<path d="M17188 3958 l-218 -61 0 -126 c0 -69 -3 -149 -6 -177 l-6 -50 -169 4
-169 5 0 -197 0 -196 169 0 170 0 -2 -422 c-2 -407 -1 -426 20 -500 54 -191
140 -283 308 -334 45 -14 92 -18 190 -18 118 1 139 3 225 32 87 29 220 96 279
141 l23 18 -102 154 c-57 85 -104 156 -106 158 -2 2 -25 -10 -51 -27 -133 -85
-233 -112 -272 -73 -37 37 -41 84 -41 484 l0 387 250 0 250 0 0 196 0 196
-252 -3 -253 -4 -3 238 c-1 130 -6 237 -10 236 -4 0 -105 -28 -224 -61z"/>
<path d="M13835 3580 c-280 -43 -497 -195 -611 -425 -71 -144 -87 -221 -88
-415 0 -142 3 -177 22 -249 65 -237 198 -403 407 -507 114 -56 221 -83 360
-91 438 -23 764 188 881 572 26 84 28 103 28 270 0 155 -3 191 -22 259 -47
169 -150 327 -273 421 -83 62 -204 119 -310 145 -97 24 -301 34 -394 20z m296
-383 c81 -34 149 -117 190 -233 30 -83 38 -300 15 -398 -30 -126 -101 -232
-187 -276 -90 -47 -228 -46 -325 0 -127 62 -204 231 -204 450 0 277 114 453
308 478 69 9 154 0 203 -21z"/>
<path d="M20545 3579 c-456 -48 -753 -452 -697 -946 16 -143 35 -210 87 -318
79 -161 180 -261 340 -335 250 -117 591 -115 850 4 77 36 196 113 259 168 l39
34 -129 114 c-71 62 -143 127 -160 142 l-31 29 -64 -56 c-76 -67 -201 -131
-283 -146 -154 -28 -301 52 -376 205 -16 33 -33 82 -36 109 l-7 47 537 0 536
0 0 143 c0 187 -23 298 -86 425 -95 193 -267 324 -482 367 -95 19 -204 24
-297 14z m241 -377 c89 -46 145 -122 160 -219 l7 -43 -302 0 c-343 0 -316 -8
-284 90 23 72 98 153 166 180 69 27 193 23 253 -8z"/>
<path d="M23770 3579 c-191 -24 -394 -114 -529 -236 l-44 -39 154 -136 154
-137 30 25 c130 107 246 156 370 157 159 1 232 -64 243 -215 l5 -68 -148 0
c-381 0 -653 -103 -786 -297 -97 -141 -97 -361 1 -513 98 -153 306 -250 505
-236 126 8 232 50 377 147 65 44 68 42 68 -52 l0 -59 235 0 235 0 0 561 c0
622 -2 641 -66 774 -44 92 -102 157 -190 215 -152 99 -377 139 -614 109z m379
-1071 l0 -123 -29 -23 c-100 -79 -231 -132 -326 -132 -69 0 -111 18 -152 64
-27 31 -32 45 -32 87 0 28 7 66 16 84 45 95 216 153 482 163 l42 2 -1 -122z"/>
<path d="M15920 3565 c-135 -27 -265 -89 -400 -189 l-75 -56 -6 102 c-4 57 -7
109 -8 116 -1 9 -54 12 -231 12 l-230 0 0 -815 0 -815 240 0 240 0 0 523 0
522 78 62 c42 34 115 82 161 105 75 39 92 43 167 47 l84 3 35 -35 35 -35 0
-596 0 -596 245 0 246 0 -3 693 c-3 763 0 723 -67 821 -85 123 -290 176 -511
131z"/>
<path d="M25608 3561 c-103 -33 -175 -89 -255 -196 l-22 -30 0 61 c-1 34 -4
82 -7 108 l-7 46 -228 0 -229 0 0 -815 0 -815 240 0 240 0 0 503 0 504 38 59
c70 108 181 166 321 166 l83 0 95 196 c51 107 90 199 86 203 -15 14 -126 29
-212 28 -54 0 -107 -7 -143 -18z"/>
<path d="M10840 2735 l0 -815 240 0 240 0 0 482 c0 291 4 478 9 473 5 -6 95
-167 199 -360 l190 -350 179 -3 179 -2 204 356 c112 195 210 363 217 372 10
14 12 -76 13 -475 l0 -493 240 0 240 0 0 815 0 815 -306 -2 -306 -3 -231 -428
c-196 -363 -233 -426 -243 -412 -7 9 -112 203 -234 431 l-222 414 -304 0 -304
0 0 -815z"/>
<path d="M22530 2735 l0 -815 240 0 240 0 0 815 0 815 -240 0 -240 0 0 -815z"/>
<path d="M6150 2000 l-684 -1200 -586 0 -585 0 -610 1127 c-335 621 -622 1151
-637 1178 l-28 50 0 -1562 0 -1563 1910 0 1910 0 0 1585 c0 872 -1 1585 -2
1585 -2 -1 -311 -541 -688 -1200z"/>
<path d="M19587 1609 l-147 -101 31 -39 c17 -21 35 -39 40 -39 11 0 187 87
277 137 l64 36 -53 53 c-29 30 -56 54 -59 53 -3 0 -71 -45 -153 -100z"/>
<path d="M12576 1264 c-202 -49 -352 -203 -412 -424 -28 -100 -26 -320 4 -423
32 -113 76 -193 141 -256 104 -104 235 -151 415 -151 222 0 376 77 421 209 12
34 15 92 15 253 l0 208 -230 0 -230 0 0 -65 0 -64 153 -3 152 -3 3 -110 c4
-137 -8 -184 -59 -229 -50 -46 -104 -60 -224 -60 -133 1 -198 25 -276 103 -92
93 -139 222 -139 386 0 220 98 409 249 482 49 24 68 28 156 28 93 0 105 -2
167 -33 36 -18 89 -53 118 -79 l51 -46 55 54 55 54 -47 43 c-59 54 -163 107
-246 127 -78 18 -214 18 -292 -1z"/>
<path d="M13935 1266 c-204 -49 -358 -206 -417 -423 -29 -110 -29 -305 1 -418
57 -217 189 -352 392 -400 84 -19 257 -19 334 0 131 34 224 104 254 192 9 25
15 111 18 251 l5 212 -231 0 -231 0 0 -65 0 -65 150 0 150 0 0 -128 c0 -116
-2 -133 -23 -173 -61 -115 -295 -144 -458 -57 -68 35 -96 64 -142 141 -49 80
-71 179 -71 307 0 226 88 396 242 472 61 30 74 33 162 33 86 0 101 -3 162 -32
37 -17 90 -53 118 -79 l51 -48 55 55 55 54 -50 47 c-58 53 -149 101 -236 123
-70 18 -219 18 -290 1z"/>
<path d="M16310 1254 c-287 -76 -458 -367 -419 -715 32 -282 183 -462 431
-513 279 -57 538 54 643 276 54 113 69 185 69 328 0 147 -15 216 -75 339 -73
149 -211 258 -367 290 -73 15 -216 13 -282 -5z m271 -130 c192 -55 304 -261
286 -529 -18 -257 -139 -416 -342 -444 -135 -19 -277 26 -351 113 -45 52 -88
144 -105 221 -18 83 -16 256 4 333 40 153 132 264 250 301 76 24 184 27 258 5z"/>
<path d="M25286 1254 c-188 -46 -336 -201 -397 -419 -32 -113 -32 -297 -1
-408 73 -257 242 -396 504 -414 307 -20 535 143 604 432 22 94 22 277 0 370
-55 227 -204 387 -411 440 -73 19 -220 18 -299 -1z m274 -130 c183 -54 283
-223 284 -479 0 -172 -44 -306 -131 -397 -41 -43 -134 -87 -207 -97 -185 -26
-335 47 -411 203 -119 240 -63 597 113 718 93 64 239 86 352 52z"/>
<path d="M20420 645 l0 -615 80 0 80 0 0 270 0 270 184 0 185 0 136 -270 136
-270 89 0 90 0 -34 62 c-67 126 -257 501 -254 503 2 1 27 15 56 31 120 64 190
193 180 328 -10 115 -66 204 -162 253 -88 45 -157 53 -473 53 l-293 0 0 -615z
m647 460 c75 -31 113 -92 113 -179 0 -91 -33 -145 -115 -189 -37 -20 -58 -22
-262 -25 l-223 -4 0 206 0 206 225 0 c180 0 233 -3 262 -15z"/>
<path d="M11217 1243 c-5 -7 -466 -1135 -488 -1190 -8 -23 -8 -23 80 -23 l88
0 58 160 58 160 310 -2 309 -3 58 -155 58 -155 86 -3 c65 -2 86 0 85 10 0 7
-109 281 -242 608 l-242 595 -107 3 c-58 1 -109 -1 -111 -5z m237 -439 c69
-171 126 -314 126 -318 0 -3 -112 -6 -250 -6 -139 0 -250 4 -250 9 0 9 192
518 224 595 9 22 18 37 20 35 2 -2 61 -144 130 -315z"/>
<path d="M14910 640 l0 -610 380 0 380 0 0 70 0 70 -300 0 -300 0 0 540 0 540
-80 0 -80 0 0 -610z"/>
<path d="M17430 640 l0 -610 80 0 80 0 0 537 c0 308 4 533 9 528 5 -6 93 -200
196 -432 l187 -423 102 0 101 0 192 417 c105 230 196 419 201 421 6 2 7 -190
4 -523 l-5 -525 82 0 81 0 0 610 0 611 -136 -3 -135 -3 -189 -430 c-104 -236
-192 -431 -197 -432 -5 -2 -93 191 -195 429 l-185 433 -137 3 -136 3 0 -611z"/>
<path d="M19200 640 l0 -610 420 0 420 0 0 70 0 70 -340 0 -340 0 0 215 0 215
273 -2 272 -3 3 68 3 67 -276 0 -275 0 0 190 0 190 335 0 335 0 0 70 0 70
-415 0 -415 0 0 -610z"/>
<path d="M22099 1223 c-5 -16 -117 -289 -247 -608 l-238 -580 84 -3 c47 -2 86
-1 89 2 2 2 30 73 61 157 l57 154 310 0 309 0 59 -157 60 -158 88 0 89 0 -13
32 c-8 18 -119 293 -248 611 l-233 577 -109 0 -108 0 -10 -27z m250 -426 c67
-164 121 -302 121 -307 0 -6 -95 -10 -250 -10 -137 0 -250 3 -250 6 0 4 163
435 230 609 9 24 13 27 20 15 4 -8 63 -149 129 -313z"/>
<path d="M22790 1180 l0 -70 205 0 205 0 0 -540 0 -540 80 0 80 0 0 540 0 540
210 0 210 0 0 70 0 70 -495 0 -495 0 0 -70z"/>
<path d="M23990 1185 l0 -65 110 0 110 0 0 -480 0 -480 -115 0 -115 0 0 -65 0
-65 310 0 310 0 0 65 0 65 -120 0 -120 0 0 480 0 480 110 0 110 0 0 65 0 65
-295 0 -295 0 0 -65z"/>
<path d="M26410 640 l0 -610 82 0 81 0 -7 530 c-4 292 -4 530 1 530 4 0 146
-237 315 -528 l307 -527 125 -3 126 -3 0 611 0 610 -82 0 -81 0 6 -530 c3
-292 3 -530 -1 -530 -4 0 -146 237 -314 528 l-307 527 -125 3 -126 3 0 -611z"/>
</g>
</svg>
